<?xml version="1.0" standalone="no"?>
<!DOCTYPE svg PUBLIC "-//W3C//DTD SVG 20010904//EN"
 "http://www.w3.org/TR/2001/REC-SVG-20010904/DTD/svg10.dtd">
<svg version="1.0" xmlns="http://www.w3.org/2000/svg"
 width="600.000000pt" height="600.000000pt" viewBox="0 0 600.000000 600.000000"
 preserveAspectRatio="xMidYMid meet">
<metadata>
Created by potrace 1.11, written by Peter Selinger 2001-2013
</metadata>
<g transform="translate(0.000000,600.000000) scale(0.100000,-0.100000)"
fill="#000000" stroke="none">
<path d="M5917 5994 c-1 -1 -22 -5 -47 -9 -25 -3 -63 -10 -85 -15 -22 -4 -47
-8 -55 -8 -8 0 -40 -5 -70 -12 -30 -7 -66 -13 -80 -15 -14 -2 -25 -4 -25 -5 0
-2 -23 -7 -70 -15 -22 -4 -58 -11 -80 -16 -22 -5 -53 -12 -70 -15 -39 -7 -295
-71 -315 -78 -8 -3 -26 -8 -40 -10 -45 -9 -65 -14 -95 -26 -16 -6 -30 -10 -30
-9 0 3 -33 -7 -225 -69 -96 -31 -177 -57 -180 -57 -3 -1 -12 -5 -20 -8 -8 -4
-49 -18 -90 -33 -41 -14 -88 -32 -105 -39 -16 -7 -82 -34 -145 -60 -201 -84
-479 -218 -577 -277 -21 -13 -55 -32 -75 -43 -21 -11 -38 -22 -38 -26 0 -3 -6
-6 -13 -6 -7 0 -48 -23 -90 -51 -43 -29 -80 -52 -82 -52 -8 0 -100 -65 -103
-72 -2 -5 -9 -8 -16 -8 -7 0 -21 -9 -31 -20 -10 -11 -24 -20 -32 -20 -7 0 -13
-4 -13 -9 0 -5 -17 -20 -37 -32 -21 -13 -40 -26 -43 -29 -3 -3 -21 -17 -40
-30 -19 -14 -42 -32 -51 -40 -9 -8 -63 -53 -120 -100 -97 -80 -429 -400 -429
-413 0 -4 -15 -22 -32 -41 -18 -18 -45 -49 -60 -67 -29 -37 -27 -36 -248 -43
-63 -2 -203 -7 -310 -11 -107 -4 -237 -8 -288 -9 l-92 -2 -58 -57 c-58 -57
-139 -136 -582 -568 -556 -541 -612 -597 -604 -601 5 -3 182 -6 394 -8 212 -2
422 -3 468 -4 l83 -1 62 -66 c34 -36 84 -91 111 -123 27 -31 68 -75 90 -99 99
-105 136 -150 136 -167 0 -13 -22 -29 -72 -55 -40 -20 -93 -49 -118 -65 -25
-16 -51 -33 -59 -37 -8 -3 -22 -14 -31 -22 -9 -9 -34 -29 -56 -46 -93 -69
-314 -312 -314 -344 0 -6 -4 -11 -9 -11 -5 0 -16 -12 -24 -28 -32 -62 -52 -97
-59 -102 -6 -5 -78 -154 -110 -230 -19 -45 -68 -185 -70 -200 0 -3 -5 -16 -10
-30 -5 -14 -11 -32 -14 -40 -5 -21 -25 -102 -30 -122 -2 -10 -6 -28 -10 -40
-5 -24 -8 -38 -19 -103 -3 -22 -10 -65 -15 -95 -20 -121 -31 -257 -33 -400
l-2 -105 25 1 c179 11 234 15 239 18 3 2 38 7 77 10 40 3 78 8 85 11 8 2 34 7
59 9 40 5 65 8 135 20 11 2 38 7 60 10 22 4 47 9 55 12 8 3 29 8 45 11 29 5
199 50 280 75 22 6 43 13 48 14 4 1 10 3 15 4 4 1 10 2 15 1 4 0 7 4 7 10 0 5
4 8 8 5 5 -3 20 1 35 9 15 8 27 12 27 10 0 -4 75 28 159 69 30 14 61 26 68 26
7 0 13 4 13 9 0 5 14 15 32 22 27 11 109 63 228 146 43 29 203 196 235 243 16
25 32 47 36 50 11 10 67 137 80 180 17 62 22 65 56 33 17 -15 48 -44 69 -63
120 -108 244 -221 291 -266 l54 -50 4 -215 c1 -118 4 -332 5 -476 0 -145 3
-263 6 -263 3 0 60 57 127 126 130 134 254 261 682 700 149 152 303 310 343
351 61 63 72 80 73 111 1 20 3 89 5 152 1 63 3 115 4 115 1 0 4 61 5 135 2 74
6 216 9 315 l5 180 29 25 c16 14 58 50 93 80 168 144 320 296 459 460 25 29
50 58 57 65 10 11 194 254 248 329 11 15 57 87 102 159 46 73 87 138 93 145 6
6 8 12 5 12 -4 0 2 12 13 28 58 82 282 536 282 571 0 6 5 11 10 11 6 0 10 6
10 14 0 8 15 52 34 98 19 45 36 90 39 98 2 8 6 20 8 25 1 6 8 21 15 34 7 14
11 28 8 33 -3 4 -1 8 4 8 5 0 9 6 9 13 0 6 12 44 27 83 26 70 93 282 101 317
2 10 14 52 25 95 12 42 24 88 27 102 7 34 8 39 21 85 6 22 13 51 16 65 3 14
14 68 25 120 22 106 31 153 36 190 2 14 6 36 9 50 13 69 17 97 17 123 -1 15 2
27 7 27 4 0 6 16 4 35 -2 19 0 35 4 35 5 0 9 17 10 38 1 61 16 226 21 235 4 6
-63 7 -70 1z"/>
</g>
</svg>
