<?xml version="1.0" standalone="no"?>
<!DOCTYPE svg PUBLIC "-//W3C//DTD SVG 1.1//EN" "http://www.w3.org/Graphics/SVG/1.1/DTD/svg11.dtd" >
<svg xmlns="http://www.w3.org/2000/svg">
<metadata></metadata>
<defs>
<font id="cerathin" horiz-adv-x="1605" >
<font-face units-per-em="2048" ascent="1655" descent="-393" />
<missing-glyph horiz-adv-x="573" />
<glyph unicode="&#xfb01;" horiz-adv-x="1050" d="M211 1280q0 144 75.5 210t202.5 66q53 0 103 -12v-55q-58 10 -98 10q-222 0 -222 -219v-297h269v-57h-269v-926h-61v926h-143v57h143v297zM817 1434q29 0 49.5 -20.5t20.5 -49.5t-20.5 -49.5t-49.5 -20.5t-49 20.5t-20 49.5t20 49.5t49 20.5zM786 0v983h62v-983h-62z" />
<glyph unicode="&#xfb02;" horiz-adv-x="1050" d="M211 1280q0 144 75.5 210t202.5 66q53 0 103 -12v-55q-58 10 -98 10q-222 0 -222 -219v-297h269v-57h-269v-926h-61v926h-143v57h143v297zM786 1536h62v-1536h-62v1536z" />
<glyph horiz-adv-x="0" />
<glyph horiz-adv-x="682" />
<glyph unicode=" "  horiz-adv-x="573" />
<glyph unicode="&#x09;" horiz-adv-x="573" />
<glyph unicode="&#xa0;" horiz-adv-x="573" />
<glyph unicode="!" horiz-adv-x="552" d="M315 1352l-10 -979h-57l-10 979h77zM274 139q33 0 57.5 -22t24.5 -60q0 -35 -24.5 -56t-57.5 -21q-30 0 -53.5 21t-23.5 56q0 38 23.5 60t53.5 22z" />
<glyph unicode="&#x22;" horiz-adv-x="829" d="M334 1352l-68 -492h-53l41 492h80zM621 1352l-68 -492h-53l41 492h80z" />
<glyph unicode="#" horiz-adv-x="1165" d="M1102 854h-203l-49 -356h207v-58h-215l-60 -440h-59l59 440h-465l-59 -440h-59l59 440h-195v58h203l47 356h-204v57h213l59 441h61l-59 -441h463l59 441h62l-60 -441h195v-57zM326 498h465l47 356h-463z" />
<glyph unicode="$" horiz-adv-x="1093" d="M936 358q0 -135 -102 -220t-256 -93v-231h-64v233q-262 17 -418 281l54 34q138 -234 364 -253v571l-43 20q-33 16 -54 26t-53 28.5t-52.5 35t-44 40.5t-37 49t-22.5 58.5t-9 70.5q0 125 89.5 201t225.5 87v242h64v-240q210 -10 340 -204l-50 -37q-59 87 -128 130.5 t-162 47.5v-514l71 -35q52 -25 90.5 -46.5t77.5 -52t63.5 -63t40 -75t15.5 -91.5zM502 756l12 -6v483q-48 -5 -90 -19t-78 -39.5t-57 -67t-21 -95.5q0 -41 14 -76.5t32.5 -58.5t54 -47.5t61.5 -38t72 -35.5zM578 106q126 6 207 72t81 178q0 51 -18 92.5t-55 74t-76 56.5 t-99 52l-40 18v-543z" />
<glyph unicode="%" horiz-adv-x="1626" d="M440 1372q134 0 229 -93.5t95 -229.5t-95 -230t-229 -94t-227.5 94t-93.5 230t93.5 229.5t227.5 93.5zM1237 1352l-780 -1352h-64l781 1352h63zM440 1313q-110 0 -183 -75.5t-73 -188.5t73 -189t183 -76t184 76t74 189t-74 188.5t-184 75.5zM1184 629q134 0 228.5 -94 t94.5 -230t-94.5 -229.5t-228.5 -93.5t-228 93.5t-94 229.5t94 230t228 94zM1184 569q-110 0 -183 -75.5t-73 -188.5t73 -188.5t183 -75.5t184 75.5t74 188.5t-74 188.5t-184 75.5z" />
<glyph unicode="&#x26;" horiz-adv-x="1204" d="M1165 594q-163 -257 -221 -336l219 -258h-82l-176 209q-93 -112 -189.5 -170.5t-217.5 -58.5q-158 0 -273.5 92t-115.5 241q0 47 12 90.5t38 82.5t53.5 71.5t71 69t78 62t87.5 61.5q-88 105 -131.5 183t-43.5 167q0 113 70.5 192.5t196.5 79.5q123 0 195.5 -76t72.5 -184 q0 -104 -70.5 -191.5t-201.5 -183.5l366 -430q46 62 209 320zM543 1309q-98 0 -150.5 -59t-52.5 -150q0 -80 38.5 -150.5t121.5 -169.5q121 89 182 169.5t61 166.5q0 83 -52.5 138t-147.5 55zM496 43q108 0 196 54.5t172 158.5l-381 451q-49 -37 -68 -51.5t-58 -46 t-54.5 -47t-42.5 -43t-38 -47.5t-25 -46.5t-18.5 -53t-4.5 -55.5q0 -125 94.5 -199.5t227.5 -74.5z" />
<glyph unicode="'" horiz-adv-x="542" d="M334 1352l-68 -492h-53l41 492h80z" />
<glyph unicode="(" horiz-adv-x="645" d="M559 1493l25 -49q-50 -27 -95 -67t-92 -109t-80.5 -157t-55 -217t-21.5 -282t21.5 -282t55 -216.5t80.5 -157t92 -109t95 -66.5l-25 -49q-57 28 -106.5 69t-101.5 113.5t-89 164.5t-60.5 230t-23.5 303q0 139 16 258t45 207t64.5 157.5t80.5 119.5t87 83t88 56z" />
<glyph unicode=")" horiz-adv-x="645" d="M86 1493q46 -23 88 -56t87 -83t80.5 -119.5t64.5 -157.5t45 -207t16 -258q0 -165 -23.5 -303t-60.5 -230t-89 -164.5t-101.5 -113.5t-106.5 -69l-25 49q50 27 95.5 66.5t92.5 109t80.5 157t55 216.5t21.5 282t-21.5 282t-55 216.5t-80.5 157t-92.5 109.5t-95.5 67z" />
<glyph unicode="*" horiz-adv-x="745" d="M639 1368l-203 -125l203 -125l-25 -43l-211 113l-6 -238h-49l-6 238l-211 -113l-25 43l203 125l-203 125l25 43l211 -113l6 238h49l6 -238l211 113z" />
<glyph unicode="+" horiz-adv-x="1146" d="M1010 604h-406v-418h-61v418h-408v58h408v417h61v-417h406v-58z" />
<glyph unicode="," horiz-adv-x="552" d="M332 129l-66 -498h-57l41 498h82z" />
<glyph unicode="-" horiz-adv-x="696" d="M573 662v-58h-450v58h450z" />
<glyph unicode="." horiz-adv-x="552" d="M274 139q33 0 57.5 -22t24.5 -60q0 -35 -24.5 -56t-57.5 -21q-30 0 -53.5 21t-23.5 56q0 38 23.5 60t53.5 22z" />
<glyph unicode="/" horiz-adv-x="1177" d="M1157 1597l-1071 -1845h-66l1072 1845h65z" />
<glyph unicode="0" horiz-adv-x="1366" d="M682 1106q155 0 285 -75.5t205 -205.5t75 -284q0 -115 -44.5 -219t-120 -180t-180.5 -120.5t-222 -44.5q-155 0 -284 75.5t-203 205.5t-74 283q0 154 74 284t203.5 205.5t285.5 75.5zM682 1047q-215 0 -356.5 -145.5t-141.5 -360.5q0 -213 141.5 -358.5t354.5 -145.5 q216 0 359 145.5t143 358.5q0 215 -142.5 360.5t-357.5 145.5z" />
<glyph unicode="1" horiz-adv-x="968" d="M565 1085v-1028h309v-57h-700v57h328v971h-305v57h368z" />
<glyph unicode="2" horiz-adv-x="1087" d="M240 57h735v-57h-875v25l381 270q54 38 82.5 58.5t73 56t68.5 60t54 60.5t45 68t25.5 72.5t10.5 83.5q0 127 -77.5 210t-217.5 83q-144 0 -226.5 -87t-82.5 -208q0 -56 14 -117h-64q-16 56 -16 117q0 91 44 171t131.5 131.5t199.5 51.5q160 0 260 -97t100 -249 q0 -65 -21.5 -126t-53.5 -108t-88 -99.5t-104 -89t-122 -87.5z" />
<glyph unicode="3" horiz-adv-x="1030" d="M473 569q63 0 123.5 -14.5t117 -46.5t99.5 -78.5t68.5 -115.5t25.5 -152q0 -102 -37 -185.5t-100 -137t-144.5 -82.5t-172.5 -29q-266 0 -433 256l50 36q150 -233 387 -233q168 0 276.5 106t108.5 271q0 160 -107 254t-295 94h-90v25l410 491h-658v57h764v-24l-411 -492 h18z" />
<glyph unicode="4" horiz-adv-x="1056" d="M1016 57v-57h-215v-248h-66v248h-682v25l461 1060h68l-447 -1028h600v518h66v-518h215z" />
<glyph unicode="5" horiz-adv-x="1089" d="M502 571q96 0 178 -24t147 -71.5t102.5 -127.5t37.5 -184q0 -102 -38 -186.5t-101.5 -138t-142.5 -82.5t-165 -29q-273 0 -440 256l47 36q150 -233 397 -233q162 0 269.5 106t107.5 271q0 163 -106.5 256.5t-294.5 93.5h-297v571h631v-57h-566v-467q100 10 234 10z" />
<glyph unicode="6" horiz-adv-x="1110" d="M553 840q185 0 309.5 -125t124.5 -305q0 -181 -124 -305.5t-308 -124.5t-308 124.5t-124 307.5q0 32 5 63.5t10.5 56t19.5 56.5t22.5 50.5t29.5 53t30.5 49t35.5 53.5t35 52l336 506h78l-391 -578q94 66 219 66zM555 39q157 0 262 105.5t105 263.5t-105 265t-262 107 t-262 -107t-105 -265q0 -159 105 -264t262 -105z" />
<glyph unicode="7" horiz-adv-x="987" d="M66 1085h866v-24l-729 -1309h-70l709 1276h-776v57z" />
<glyph unicode="8" horiz-adv-x="1163" d="M659 717q58 -21 105.5 -43.5t99 -57t86 -73.5t57.5 -93.5t23 -117.5q0 -155 -120.5 -253.5t-327.5 -98.5t-328 98.5t-121 255.5q0 257 371 381q-145 55 -225 136.5t-80 203.5q0 148 109.5 232.5t273.5 84.5q163 0 273 -84.5t110 -234.5q0 -230 -306 -336zM264 1053 q0 -47 16.5 -87.5t43 -71t69.5 -58.5t86.5 -48.5t102.5 -42.5q59 22 102.5 42.5t86 48.5t69 58.5t43 71t16.5 87.5q0 120 -90.5 190t-226.5 70t-227 -70t-91 -190zM582 39q179 0 281 81.5t102 213.5q0 58 -22 107t-54 82t-87.5 64.5t-102 50.5t-117.5 44q-71 -25 -117.5 -44 t-102 -50.5t-87.5 -64.5t-54 -82t-22 -107q0 -132 102 -213.5t281 -81.5z" />
<glyph unicode="9" horiz-adv-x="1110" d="M555 1106q183 0 307.5 -124t124.5 -304q0 -57 -10 -106t-38 -104t-48 -88t-70 -107q-14 -22 -22 -33l-324 -488h-78l379 559q-92 -65 -219 -65q-185 0 -309.5 125t-124.5 305q0 181 124 305.5t308 124.5zM555 305q157 0 262 107.5t105 265.5q0 159 -105 264t-262 105 t-262 -105.5t-105 -263.5t105 -265.5t262 -107.5z" />
<glyph unicode=":" horiz-adv-x="552" d="M274 987q33 0 57.5 -22t24.5 -60q0 -35 -24.5 -56.5t-57.5 -21.5q-30 0 -53.5 21.5t-23.5 56.5q0 38 23.5 60t53.5 22zM274 139q33 0 57.5 -22t24.5 -60q0 -35 -24.5 -56t-57.5 -21q-30 0 -53.5 21t-23.5 56q0 38 23.5 60t53.5 22z" />
<glyph unicode=";" horiz-adv-x="552" d="M274 987q33 0 57.5 -22t24.5 -60q0 -35 -24.5 -56.5t-57.5 -21.5q-30 0 -53.5 21.5t-23.5 56.5q0 38 23.5 60t53.5 22zM332 129l-66 -498h-57l41 498h82z" />
<glyph unicode="&#x3c;" horiz-adv-x="1146" d="M983 1004v-64l-737 -305l737 -305v-64l-854 357v24z" />
<glyph unicode="=" horiz-adv-x="1146" d="M989 866v-57h-833v57h833zM989 455v-58h-833v58h833z" />
<glyph unicode="&#x3e;" horiz-adv-x="1146" d="M164 1004l854 -357v-24l-854 -357v64l737 305l-737 305v64z" />
<glyph unicode="?" horiz-adv-x="901" d="M459 1372q139 0 235.5 -93.5t96.5 -231.5q0 -33 -7 -64.5t-15 -55t-28.5 -54t-33 -47t-43 -48.5t-43.5 -44.5t-50 -47.5q-54 -51 -78 -77.5t-44.5 -66.5t-20.5 -83q0 -35 14 -86h-61q-19 44 -19 86q0 70 39 126t129 142q46 45 67 66t51.5 57t43.5 61t23 60t10 73 q0 118 -75.5 193.5t-188.5 75.5q-97 0 -170.5 -58.5t-106.5 -169.5l-57 21q35 120 123.5 193t208.5 73zM426 139q31 0 55.5 -22.5t24.5 -57.5q0 -36 -24 -57.5t-56 -21.5t-56 21t-24 58q0 36 24.5 58t55.5 22z" />
<glyph unicode="@" horiz-adv-x="1851" d="M1262 86h-13v186q-41 -94 -137.5 -150t-208.5 -56q-173 0 -290 123.5t-117 302.5q0 178 116.5 300.5t290.5 122.5q114 0 209.5 -56t136.5 -150v190h60v-754q161 12 260.5 132t99.5 315q0 138 -54.5 262.5t-149 215.5t-229 144.5t-288.5 53.5q-159 0 -301 -57.5t-244 -157 t-161.5 -238.5t-59.5 -295t59.5 -295.5t162 -239.5t245.5 -158t303 -58q162 0 295 55l19 -51q-153 -64 -320 -64q-171 0 -325 64t-264.5 172.5t-175 259t-64.5 317.5q0 168 65 317.5t175.5 256t263.5 169t323 62.5q165 0 312.5 -58t252 -156t165.5 -233t61 -284 q0 -228 -131.5 -369t-341.5 -141zM907 125q65 0 124.5 21.5t108.5 64.5t78 115.5t29 165.5q0 92 -29 164t-78 114.5t-108 64t-125 21.5q-151 0 -248.5 -104t-97.5 -260q0 -157 97.5 -262t248.5 -105z" />
<glyph unicode="A" horiz-adv-x="1361" d="M1202 0l-149 358h-746l-147 -358h-68l574 1372h30l574 -1372h-68zM680 1257l-348 -839h696z" />
<glyph unicode="B" horiz-adv-x="1249" d="M831 750q152 -26 234 -125t82 -242q0 -168 -109.5 -275.5t-306.5 -107.5h-483h-37v1352h65h390q166 0 257 -89.5t91 -230.5q0 -96 -47.5 -170t-135.5 -112zM659 1294l-383 -2v-526h383q141 0 214 73t73 191q0 119 -73 191.5t-214 72.5zM727 59q167 0 259.5 91t92.5 231 q0 141 -92.5 233.5t-259.5 92.5h-451v-648h451z" />
<glyph unicode="C" horiz-adv-x="1452" d="M801 1372q163 0 302.5 -70t231.5 -194l-49 -39q-84 113 -208.5 176.5t-274.5 63.5q-130 0 -244.5 -49t-196 -133t-129 -200.5t-47.5 -248.5t47 -249.5t128.5 -202t196.5 -134t245 -49.5q150 0 274.5 63.5t208.5 176.5l49 -39q-92 -124 -231.5 -194t-302.5 -70 q-189 0 -346 92t-247.5 252t-90.5 352q0 194 91 354t248 251t345 91z" />
<glyph unicode="D" horiz-adv-x="1429" d="M578 1352q176 0 317 -51.5t231.5 -142.5t138.5 -213.5t48 -266.5q0 -143 -48 -266t-138.5 -215t-231.5 -144.5t-317 -52.5h-367v1352h367zM578 1292h-302v-1233h302q159 0 287 49t209.5 134t125 196.5t43.5 239.5q0 129 -43.5 239.5t-125 194.5t-209.5 132t-287 48z" />
<glyph unicode="E" horiz-adv-x="1148" d="M1042 1352v-60h-766v-526h603v-59h-603v-648h791v-59h-856v1352h831z" />
<glyph unicode="F" horiz-adv-x="1052" d="M1022 1352v-60h-746v-565h623v-59h-623v-668h-65v1352h811z" />
<glyph unicode="G" horiz-adv-x="1523" d="M801 1372q163 0 302.5 -70t231.5 -194l-49 -39q-84 113 -208.5 176.5t-274.5 63.5q-130 0 -244.5 -49t-196 -133t-129 -200.5t-47.5 -248.5q0 -176 80 -321.5t222 -229.5t317 -84q167 0 305 76.5t219 208.5v258h-528v61h594v-330q-90 -159 -248.5 -248t-345.5 -89 q-190 0 -347 92t-247 251.5t-90 352.5q0 194 91 354t248 251t345 91z" />
<glyph unicode="H" horiz-adv-x="1441" d="M1231 1352v-1352h-66v707h-889v-707h-65v1352h65v-586h889v586h66z" />
<glyph unicode="I" horiz-adv-x="487" d="M276 1352v-1352h-65v1352h65z" />
<glyph unicode="J" horiz-adv-x="739" d="M528 1352v-1076q0 -154 -84.5 -225t-222.5 -71q-75 0 -160 20v59q88 -16 158 -16q53 0 94 10t76.5 34.5t54.5 72t19 116.5v1076h65z" />
<glyph unicode="K" horiz-adv-x="1224" d="M211 0v1352h65v-1352h-65zM406 735l737 -735h-88l-740 735l691 617h92z" />
<glyph unicode="L" horiz-adv-x="1009" d="M276 1352v-1293h685v-59h-750v1352h65z" />
<glyph unicode="M" horiz-adv-x="1601" d="M1360 1372h31v-1372h-66v1198l-508 -745h-31l-510 745v-1198h-65v1372h31l559 -823z" />
<glyph unicode="N" horiz-adv-x="1441" d="M1165 1352h66v-1372h-31l-924 1230v-1210h-65v1372h31l923 -1241v1221z" />
<glyph unicode="O" d="M801 1372q188 0 346 -91t250 -251t92 -354q0 -145 -54.5 -274.5t-146.5 -221.5t-219 -146t-268 -54q-189 0 -346 92t-247.5 252t-90.5 352q0 194 91 354t248 251t345 91zM803 1309q-172 0 -314 -83t-222.5 -227.5t-80.5 -320.5q0 -132 47.5 -249.5t129 -202t196 -134 t244.5 -49.5q172 0 313.5 84t222 229.5t80.5 321.5q0 175 -80.5 319.5t-222 228t-313.5 83.5z" />
<glyph unicode="P" horiz-adv-x="1140" d="M659 1352q182 0 286 -100.5t104 -256.5q0 -157 -104 -257.5t-286 -100.5h-383v-637h-65v1352h448zM655 1292h-379v-596h379q157 0 241.5 82.5t84.5 214.5t-84.5 215.5t-241.5 83.5z" />
<glyph unicode="Q" d="M1901 -330q78 0 202 15v-56q-105 -18 -200 -18q-491 0 -807 434q-136 -65 -295 -65q-189 0 -346 92t-247.5 252t-90.5 352q0 194 91 354t248 251t345 91t346 -91t250 -251t92 -354q0 -193 -91.5 -352t-248.5 -250q301 -404 752 -404zM186 678q0 -132 47 -249.5 t128.5 -202t196.5 -134t245 -49.5q173 0 314.5 84t221.5 229.5t80 321.5q0 175 -80 319.5t-221.5 228t-314.5 83.5q-130 0 -244.5 -49t-196 -133t-129 -200.5t-47.5 -248.5z" />
<glyph unicode="R" horiz-adv-x="1245" d="M1198 0h-80l-479 637h-363v-637h-65v1352h448q182 0 286 -100.5t104 -256.5q0 -143 -87 -241t-243 -115zM276 1292v-596h379q157 0 241.5 82.5t84.5 214.5t-84.5 215.5t-241.5 83.5h-379z" />
<glyph unicode="S" horiz-adv-x="1136" d="M580 1372q127 0 226 -55t165 -150l-47 -37q-130 179 -340 179q-58 0 -111 -13.5t-100.5 -41.5t-76 -79t-28.5 -118q0 -47 13.5 -86t33 -65.5t56.5 -53.5t67.5 -44t83.5 -42l156 -74q80 -38 132 -71.5t94 -76.5t61.5 -96.5t19.5 -121.5q0 -155 -115.5 -250.5t-289.5 -95.5 q-153 0 -275 75.5t-203 208.5l50 37q75 -119 183.5 -188.5t246.5 -69.5q144 0 238.5 76t94.5 207q0 112 -59.5 175t-208.5 134l-155 74q-56 27 -87.5 44t-76.5 49.5t-69 64t-42 80.5t-18 106q0 149 109.5 234t271.5 85z" />
<glyph unicode="T" horiz-adv-x="1196" d="M1141 1352v-60h-510v-1292h-66v1292h-510v60h1086z" />
<glyph unicode="U" horiz-adv-x="1388" d="M1200 1352v-836q0 -248 -136.5 -392t-367.5 -144q-235 0 -371.5 143.5t-136.5 392.5v836h66v-836q0 -224 120 -348.5t322 -124.5q199 0 319 125t120 348v836h65z" />
<glyph unicode="V" horiz-adv-x="1361" d="M1202 1352h68l-574 -1372h-30l-574 1372h68l522 -1252z" />
<glyph unicode="W" horiz-adv-x="2205" d="M2025 1352h68l-491 -1372h-31l-467 1267l-469 -1267h-31l-491 1372h67l441 -1250l466 1270h31l467 -1270z" />
<glyph unicode="X" horiz-adv-x="1185" d="M1104 0h-76l-434 641l-436 -641h-76l475 696l-440 656h76l403 -604l397 604h76l-436 -658z" />
<glyph unicode="Y" horiz-adv-x="1249" d="M1128 1352l-471 -766v-586h-65v586l-471 766h69l435 -711l434 711h69z" />
<glyph unicode="Z" horiz-adv-x="1208" d="M186 59h940v-59h-1040v25l938 1267h-848v60h948v-25z" />
<glyph unicode="[" horiz-adv-x="690" d="M567 1493v-57h-276v-1647h276v-57h-338v1761h338z" />
<glyph unicode="\" horiz-adv-x="1177" d="M20 1597h66l1071 -1845h-65z" />
<glyph unicode="]" horiz-adv-x="690" d="M461 1493v-1761h-338v57h276v1647h-276v57h338z" />
<glyph unicode="^" horiz-adv-x="1009" d="M868 598h-67l-295 659l-297 -659h-68l348 774h31z" />
<glyph unicode="_" horiz-adv-x="1024" d="M922 -172v-57h-820v57h820z" />
<glyph unicode="`" horiz-adv-x="395" d="M137 1597l197 -446h-53l-220 436v10h76z" />
<glyph unicode="a" horiz-adv-x="1056" d="M516 1004q159 0 256.5 -98t97.5 -281v-625h-61v174q-54 -91 -151 -142.5t-216 -51.5q-88 0 -162.5 27.5t-124 88t-49.5 144.5q0 117 92 185.5t244 68.5h367v133q0 155 -81.5 236t-215.5 81q-99 0 -172.5 -45t-136.5 -127l-45 37q148 195 358 195zM444 39 q150 0 257.5 91.5t107.5 227.5v78h-365q-132 0 -202 -51t-70 -141q0 -69 41.5 -117t101 -68t129.5 -20z" />
<glyph unicode="b" horiz-adv-x="1300" d="M686 1004q138 0 251 -68t177 -185.5t64 -258.5q0 -105 -38 -199.5t-103 -163t-156.5 -109t-194.5 -40.5q-138 0 -254.5 70t-167.5 186v-236h-61v1536h61v-788q51 116 167.5 186t254.5 70zM686 39q184 0 305 131t121 322q0 192 -120 322t-306 130q-82 0 -155.5 -27 t-134 -79.5t-96.5 -142t-36 -203.5t36 -203.5t96.5 -142.5t134 -80t155.5 -27z" />
<glyph unicode="c" horiz-adv-x="1132" d="M627 1004q120 0 221 -51.5t172 -143.5l-45 -37q-63 81 -152.5 126.5t-195.5 45.5q-187 0 -313 -130.5t-126 -321.5q0 -190 126 -321.5t311 -131.5q107 0 197 45.5t153 126.5l45 -37q-71 -91 -172.5 -142.5t-222.5 -51.5q-138 0 -253.5 68.5t-182 186.5t-66.5 257 q0 140 66.5 258t182.5 186t255 68z" />
<glyph unicode="d" horiz-adv-x="1300" d="M1036 1536h62v-1536h-62v236q-51 -116 -167.5 -186t-254.5 -70q-137 0 -250 68.5t-177 186t-64 257.5q0 215 141 363.5t350 148.5q138 0 254.5 -70t167.5 -186v788zM614 39q82 0 155.5 27t134 80t96.5 142.5t36 203.5t-36 203.5t-96.5 142t-134 79.5t-155.5 27 q-186 0 -306 -130t-120 -322q0 -191 121 -322t305 -131z" />
<glyph unicode="e" horiz-adv-x="1173" d="M1051 569q0 -21 -1.5 -42t-3.5 -31l-2 -11h-856q1 -190 126.5 -318t310.5 -128q107 0 197 45.5t153 126.5l45 -37q-70 -91 -173 -142.5t-222 -51.5q-137 0 -252.5 67.5t-182.5 185.5t-67 259q0 140 64.5 257.5t177.5 186t249 68.5q117 0 215.5 -51t160 -152t61.5 -232z M610 944q-166 0 -284.5 -114.5t-135.5 -286.5h795q6 91 -22.5 167.5t-81 127t-122.5 78.5t-149 28z" />
<glyph unicode="f" horiz-adv-x="552" d="M494 1499q-222 0 -222 -219v-297h269v-57h-269v-926h-61v926h-143v57h143v297q0 144 75.5 210t202.5 66q53 0 103 -12v-55q-58 10 -98 10z" />
<glyph unicode="g" horiz-adv-x="1314" d="M1051 983h61v-901q0 -218 -131 -344.5t-334 -126.5q-133 0 -251.5 53t-192.5 139l43 41q69 -80 175.5 -127t225.5 -47q179 0 291.5 109t112.5 303v168q-51 -112 -169 -181t-255 -69q-135 0 -248 68t-177.5 183.5t-64.5 250.5t64.5 251t177.5 184.5t248 68.5 q138 0 255.5 -69.5t168.5 -182.5v229zM631 59q81 0 154.5 27t133.5 79t96 139t36 198q0 90 -24 164.5t-64.5 125.5t-94.5 86.5t-113.5 51.5t-123.5 16q-186 0 -307 -129t-121 -315t121 -314.5t307 -128.5z" />
<glyph unicode="h" horiz-adv-x="1128" d="M586 1004q167 0 261.5 -105.5t94.5 -273.5v-625h-61v625q0 142 -80 230.5t-217 88.5q-139 0 -229.5 -90.5t-90.5 -228.5v-625h-61v1536h61v-711q46 84 130 131.5t192 47.5z" />
<glyph unicode="i" horiz-adv-x="466" d="M233 1434q29 0 49.5 -20.5t20.5 -49.5t-20.5 -49.5t-49.5 -20.5t-49 20.5t-20 49.5t20 49.5t49 20.5zM264 983v-983h-61v983h61z" />
<glyph unicode="j" horiz-adv-x="466" d="M233 1434q29 0 49.5 -20.5t20.5 -49.5t-20.5 -49.5t-49.5 -20.5t-49 20.5t-20 49.5t20 49.5t49 20.5zM264 983v-1096q0 -144 -75.5 -210t-202.5 -66q-54 0 -103 12v55q58 -10 99 -10q221 0 221 219v1096h61z" />
<glyph unicode="k" horiz-adv-x="948" d="M203 0v1536h61v-1536h-61zM387 551l520 -551h-82l-522 553l469 430h88z" />
<glyph unicode="l" horiz-adv-x="466" d="M264 1536v-1536h-61v1536h61z" />
<glyph unicode="m" horiz-adv-x="1761" d="M1231 1004q163 0 253.5 -105t90.5 -274v-625h-62v625q0 142 -75 230.5t-207 88.5q-135 0 -223 -89t-88 -212v-643h-62v625q0 143 -75.5 231t-209.5 88q-136 0 -222.5 -90t-86.5 -229v-625h-61v983h61v-154q45 83 125.5 129t185.5 46q118 0 199 -56.5t117 -154.5 q43 94 129.5 152.5t210.5 58.5z" />
<glyph unicode="n" horiz-adv-x="1128" d="M586 1004q167 0 261.5 -105.5t94.5 -273.5v-625h-61v625q0 142 -80 230.5t-217 88.5q-139 0 -229.5 -90.5t-90.5 -228.5v-625h-61v983h61v-158q46 84 130 131.5t192 47.5z" />
<glyph unicode="o" horiz-adv-x="1255" d="M627 1004q104 0 197.5 -39.5t161 -107.5t107.5 -163.5t40 -201.5q0 -141 -67.5 -259t-184.5 -185.5t-256 -67.5q-138 0 -253.5 67.5t-182 185.5t-66.5 259q0 142 66.5 260t182.5 185t255 67zM627 944q-187 0 -313 -130.5t-126 -321.5q0 -192 125.5 -322.5t311.5 -130.5 q188 0 315 131.5t127 321.5q0 191 -126.5 321.5t-313.5 130.5z" />
<glyph unicode="p" horiz-adv-x="1300" d="M686 1004q103 0 194.5 -40.5t156.5 -109t103 -163t38 -199.5q0 -141 -64 -258.5t-177 -185.5t-251 -68t-254.5 70t-167.5 186v-605h-61v1352h61v-235q51 116 167.5 186t254.5 70zM686 39q123 0 220.5 60t151.5 163.5t54 229.5q0 191 -121 321.5t-305 130.5 q-82 0 -155.5 -27t-134 -79.5t-96.5 -142t-36 -203.5t36 -203.5t96.5 -142.5t134 -80t155.5 -27z" />
<glyph unicode="q" horiz-adv-x="1300" d="M1036 983h62v-1352h-62v605q-51 -116 -167.5 -186t-254.5 -70q-209 0 -350 148.5t-141 363.5q0 140 64 257.5t177 186t250 68.5q138 0 254.5 -70t167.5 -186v235zM614 39q82 0 155.5 27t134 80t96.5 142.5t36 203.5t-36 203.5t-96.5 142t-134 79.5t-155.5 27 q-184 0 -305 -130.5t-121 -321.5q0 -126 54 -229.5t151.5 -163.5t220.5 -60z" />
<glyph unicode="r" horiz-adv-x="698" d="M604 987q26 0 58 -4v-51h-48q-63 0 -124.5 -23t-112 -64.5t-82 -107t-31.5 -143.5v-594h-61v983h61v-188q51 95 141 143.5t199 48.5z" />
<glyph unicode="s" horiz-adv-x="931" d="M475 1004q182 0 309 -158l-45 -41q-119 139 -268 139q-94 0 -161.5 -46t-67.5 -136q0 -32 11.5 -59t26 -44.5t46.5 -37.5t54 -30.5t69 -31.5l92 -41q59 -26 96 -47.5t76.5 -54.5t58.5 -76t19 -98q0 -123 -92.5 -192.5t-223.5 -69.5q-229 0 -369 215l50 36 q132 -192 323 -192q104 0 175 51.5t71 147.5q0 27 -7 51t-16 41.5t-28.5 35.5t-33.5 29t-43 26.5t-45 23t-50 22.5l-86 39q-44 20 -71.5 33.5t-63.5 37.5t-56 48t-34.5 59t-14.5 76q0 112 89 178t210 66z" />
<glyph unicode="t" horiz-adv-x="716" d="M520 37q54 0 142 18v-55q-75 -20 -146 -20q-124 0 -200 66.5t-76 209.5v670h-177v57h177v287h61v-287h328v-57h-328v-670q0 -219 219 -219z" />
<glyph unicode="u" horiz-adv-x="1112" d="M926 983v-625q0 -170 -106 -274t-263 -104q-158 0 -264.5 103.5t-106.5 274.5v625h62v-625q0 -149 88 -234t221 -85q131 0 219 85t88 234v625h62z" />
<glyph unicode="v" horiz-adv-x="1060" d="M920 983h67l-440 -1003h-31l-442 1003h67l389 -895z" />
<glyph unicode="w" horiz-adv-x="1722" d="M1581 983h68l-381 -1003h-31l-377 899l-375 -899h-30l-381 1003h67l328 -885l377 906h31l376 -906z" />
<glyph unicode="x" horiz-adv-x="956" d="M895 0h-76l-342 467l-340 -467h-76l377 516l-344 467h76l307 -418l309 418h76l-346 -467z" />
<glyph unicode="y" horiz-adv-x="1060" d="M920 983h67l-498 -1163q-48 -112 -118 -160.5t-166 -48.5q-67 0 -131 18v56q80 -17 127 -17q79 0 135.5 40.5t99.5 137.5l70 166l-432 971h67l398 -891z" />
<glyph unicode="z" horiz-adv-x="915" d="M170 57h670v-57h-762v25l659 901h-612v57h704v-25z" />
<glyph unicode="{" horiz-adv-x="804" d="M588 1436q-103 0 -155 -49t-52 -158q0 -69 30.5 -229.5t30.5 -217.5q0 -79 -33.5 -117t-95.5 -53q65 -15 97 -56t32 -114q0 -57 -30.5 -215t-30.5 -229q0 -110 52.5 -159.5t154.5 -49.5h94v-57h-94q-60 0 -106.5 13t-84.5 41.5t-58 81t-20 126.5q0 77 31 237.5t31 208.5 q0 144 -143 144h-115v57h115q143 0 143 141q0 47 -31 212t-31 241q0 139 70.5 198.5t198.5 59.5h94v-57h-94z" />
<glyph unicode="|" horiz-adv-x="679" d="M371 1597v-1845h-62v1845h62z" />
<glyph unicode="}" horiz-adv-x="804" d="M567 641h115v-57h-115q-143 0 -143 -144q0 -48 30.5 -208.5t30.5 -237.5q0 -143 -71.5 -202.5t-196.5 -59.5h-94v57h94q102 0 154.5 49.5t52.5 159.5q0 71 -31 229t-31 215q0 139 130 170q-62 15 -96 53t-34 117q0 58 31 218t31 229q0 109 -52 158t-155 49h-94v57h94 q127 0 197.5 -59.5t70.5 -198.5q0 -76 -30.5 -241t-30.5 -212q0 -141 143 -141z" />
<glyph unicode="~" horiz-adv-x="1146" d="M315 776q70 0 174 -63l203 -123q79 -49 133 -49q43 0 69 29t26 73v43h59q2 -27 2 -43q0 -64 -40.5 -112t-111.5 -48q-68 0 -174 64l-202 123q-79 49 -134 49q-43 0 -68.5 -29.5t-25.5 -73.5v-43h-59q-2 27 -2 43q0 64 40 112t111 48z" />
<glyph unicode="&#xa1;" horiz-adv-x="552" d="M274 1004q33 0 57.5 -21.5t24.5 -56.5q0 -38 -24.5 -60t-57.5 -22q-30 0 -53.5 22t-23.5 60q0 35 23.5 56.5t53.5 21.5zM305 610l10 -979h-77l10 979h57z" />
<glyph unicode="&#xa2;" horiz-adv-x="1134" d="M600 223q205 9 330 172l45 -37q-67 -88 -164 -139t-211 -55v-350h-63v352q-194 17 -326.5 163.5t-132.5 346.5t132.5 346.5t326.5 163.5v352h63v-350q114 -4 211 -55.5t164 -139.5l-45 -37q-125 163 -330 172v-905zM143 676q0 -178 112.5 -306t281.5 -145v901 q-171 -17 -282.5 -144.5t-111.5 -305.5z" />
<glyph unicode="&#xa3;" horiz-adv-x="1011" d="M479 424q0 -115 -51.5 -210.5t-138.5 -156.5h631v-57h-781v25q123 65 199 166t76 231q0 42 -15 108h-239v58h221q-17 45 -49.5 108.5t-56.5 109.5t-43 110t-19 124q0 148 96.5 240t251.5 92q140 0 235 -79.5t140 -225.5l-64 -20q-82 264 -313 264q-130 0 -203 -78.5 t-73 -196.5q0 -56 19.5 -116.5t44 -106.5t56 -110t48.5 -115h333v-58h-317q12 -49 12 -106z" />
<glyph unicode="&#xa4;" horiz-adv-x="1366" d="M1122 676q0 -174 -108 -301l280 -281l-39 -41l-280 281q-129 -119 -303 -119q-166 0 -295 113l-264 -275l-41 39l266 277q-113 129 -113 307q0 180 111 307l-264 274l39 41l266 -274q126 113 297 113q175 0 301 -117l278 278l41 -41l-280 -280q108 -127 108 -301z M672 274q163 0 274 117t111 285q0 170 -110 286.5t-273 116.5t-273 -116.5t-110 -286.5q0 -171 109.5 -286.5t271.5 -115.5z" />
<glyph unicode="&#xa5;" horiz-adv-x="1056" d="M561 694h424v-57h-424v-248h424v-57h-424v-332h-65v332h-422v57h422v248h-422v57h422l-471 658h69l434 -604l435 604h69z" />
<glyph unicode="&#xa6;" horiz-adv-x="679" d="M371 1597v-614h-62v614h62zM371 367v-615h-62v615h62z" />
<glyph unicode="&#xa7;" horiz-adv-x="1122" d="M1040 367q0 -106 -73 -179t-197 -82q10 -38 10 -71q0 -110 -74 -183t-190 -73q-89 0 -163.5 45.5t-123.5 114.5l47 34q42 -59 104.5 -97t135.5 -38q89 0 144 55t55 142q0 72 -43 130.5t-135 125.5l-185 139q-148 112 -209 189.5t-61 168.5q0 106 73 179t197 82 q-10 38 -10 71q0 110 74 183t190 73q89 0 163.5 -45t123.5 -114l-47 -35q-42 59 -104.5 97t-135.5 38q-89 0 -143.5 -55t-54.5 -142q0 -72 43 -130.5t135 -125.5l184 -139q148 -112 209 -189.5t61 -168.5zM743 164q100 0 166 54.5t66 141.5q0 71 -49 138.5t-148 142.5 l-198 152q-157 120 -203 198q-98 0 -164 -54.5t-66 -141.5q0 -72 48.5 -139.5t148.5 -141.5l184 -141q161 -122 215 -209z" />
<glyph unicode="&#xa8;" horiz-adv-x="653" d="M131 1434q29 0 49.5 -20.5t20.5 -49.5t-20.5 -49.5t-49.5 -20.5t-49.5 20.5t-20.5 49.5t20.5 49.5t49.5 20.5zM522 1434q29 0 49.5 -20.5t20.5 -49.5t-20.5 -49.5t-49.5 -20.5t-49 20.5t-20 49.5t20 49.5t49 20.5z" />
<glyph unicode="&#xa9;" d="M801 1372q188 0 346 -91t250 -251t92 -354q0 -145 -54.5 -274.5t-146.5 -221.5t-219 -146t-268 -54q-189 0 -346 92t-247.5 252t-90.5 352q0 194 91 354t248 251t345 91zM803 1313q-130 0 -245.5 -49.5t-198.5 -134t-131 -202.5t-48 -249q0 -132 48 -250t130.5 -203.5 t198.5 -135.5t246 -50q173 0 316 85t224.5 231.5t81.5 322.5q0 175 -81.5 320.5t-224.5 230t-316 84.5zM817 1087q96 0 177.5 -41.5t138.5 -115.5l-43 -37q-106 135 -273 135q-146 0 -243 -101t-97 -251q0 -147 97 -248.5t241 -101.5q168 0 275 133l43 -35 q-57 -74 -139.5 -116t-178.5 -42q-167 0 -285 120.5t-118 289.5q0 172 118 291.5t287 119.5z" />
<glyph unicode="&#xaa;" horiz-adv-x="737" d="M365 1135q105 0 169 -63t64 -181v-391h-59v100q-34 -53 -93.5 -83t-132.5 -30q-90 0 -151.5 44t-61.5 124q0 76 59 120t158 44h220v74q0 90 -48.5 136t-128.5 46q-61 0 -105.5 -26t-84.5 -76l-39 39q96 123 234 123zM322 543q91 0 153 51.5t62 132.5v39h-215 q-76 0 -116 -29t-40 -82q0 -58 45.5 -85t110.5 -27z" />
<glyph unicode="&#xab;" horiz-adv-x="874" d="M428 915l45 -41l-301 -323l301 -328l-45 -37l-334 353v24zM733 915l45 -41l-301 -323l301 -328l-45 -37l-334 353v24z" />
<glyph unicode="&#xac;" horiz-adv-x="1146" d="M948 662v-480h-61v422h-752v58h813z" />
<glyph unicode="&#xad;" horiz-adv-x="696" d="M573 662v-58h-450v58h450z" />
<glyph unicode="&#xae;" horiz-adv-x="1165" d="M582 1368q198 0 337.5 -139.5t139.5 -337.5q0 -96 -37.5 -183.5t-101.5 -151.5t-152.5 -102t-185.5 -38q-128 0 -237.5 64t-174 173.5t-64.5 237.5q0 130 64.5 240t174 173.5t237.5 63.5zM582 475q174 0 295.5 122t121.5 294q0 175 -121 296.5t-296 121.5 q-173 0 -294.5 -121.5t-121.5 -296.5q0 -172 121.5 -294t294.5 -122zM768 999q0 -51 -27.5 -88.5t-76.5 -52.5l174 -223h-78l-166 213h-125v-213h-61l-2 514h192q76 0 123 -42.5t47 -107.5zM467 903h129q52 0 80.5 26.5t28.5 67.5q0 43 -28.5 70t-80.5 27h-129v-191z" />
<glyph unicode="&#xaf;" horiz-adv-x="638" d="M578 1395v-58h-517v58h517z" />
<glyph unicode="&#xb0;" horiz-adv-x="737" d="M369 1372q121 0 205.5 -84.5t84.5 -204.5q0 -121 -84 -204.5t-206 -83.5q-123 0 -207 83t-84 205q0 121 84 205t207 84zM369 1313q-94 0 -160 -67.5t-66 -162.5q0 -96 66 -162.5t160 -66.5q95 0 160 66t65 163q0 96 -65 163t-160 67z" />
<glyph unicode="&#xb1;" horiz-adv-x="1146" d="M604 1079v-387h385v-57h-385v-387h-61v387h-387v57h387v387h61zM989 57v-57h-833v57h833z" />
<glyph unicode="&#xb2;" horiz-adv-x="733" d="M188 803h461v-58h-575v19l311 319q80 83 119 145t39 130q0 79 -52 135.5t-139 56.5q-90 0 -143 -59t-53 -141q0 -32 6 -70h-62q-8 31 -8 74q0 103 71.5 179.5t188.5 76.5q113 0 184.5 -71t71.5 -177q0 -45 -13 -86t-42.5 -83.5t-55 -71.5t-71.5 -77z" />
<glyph unicode="&#xb3;" horiz-adv-x="716" d="M346 1268q49 0 96.5 -15t89.5 -44.5t67.5 -81t25.5 -117.5q0 -127 -86.5 -202t-206.5 -75q-95 0 -165 47t-114 119l47 33q88 -139 234 -139q99 0 162 60.5t63 156.5q0 94 -63.5 148t-176.5 54h-71v21l250 307h-392v57h494v-20z" />
<glyph unicode="&#xb4;" horiz-adv-x="395" d="M334 1597v-10l-219 -436h-54l197 446h76z" />
<glyph unicode="&#xb5;" horiz-adv-x="1183" d="M1067 49q23 0 63 6v-55q-39 -8 -71 -8q-157 0 -176 168q-44 -85 -126 -132.5t-186 -47.5q-102 0 -181.5 46t-125.5 130v-525h-61v1352h61v-606q0 -150 87.5 -244t219.5 -94q134 0 222 94t88 244v606h61v-766q0 -168 125 -168z" />
<glyph unicode="&#xb6;" horiz-adv-x="1075" d="M688 1352v-840h-125q-204 0 -337.5 117.5t-133.5 306.5t133 302.5t338 113.5h125zM864 1352v-1440q0 -160 -77 -230.5t-205 -70.5q-69 0 -144 20v58q93 -19 137 -19q50 0 88 10.5t71.5 36t51 75t17.5 120.5v1440h61z" />
<glyph unicode="&#xb7;" horiz-adv-x="552" d="M274 713q33 0 57.5 -22t24.5 -60q0 -35 -24.5 -56.5t-57.5 -21.5q-30 0 -53.5 21.5t-23.5 56.5q0 38 23.5 60t53.5 22z" />
<glyph unicode="&#xb8;" horiz-adv-x="485" d="M272 27q68 -30 110 -82.5t42 -122.5q0 -88 -62.5 -149.5t-166.5 -61.5q-62 0 -134 20v56q89 -19 127 -19q72 0 121 40t49 118q0 58 -27 97t-77 77z" />
<glyph unicode="&#xb9;" horiz-adv-x="698" d="M397 1597v-794h205v-58h-498v58h230v737h-230v57h293z" />
<glyph unicode="&#xba;" horiz-adv-x="849" d="M424 1135q134 0 229 -94t95 -230t-95 -230t-229 -94t-228 94t-94 230t94 230t228 94zM424 1075q-110 0 -183 -75.5t-73 -188.5t73 -188.5t183 -75.5t184 75.5t74 188.5t-74 188.5t-184 75.5z" />
<glyph unicode="&#xbb;" horiz-adv-x="874" d="M141 915l334 -352v-24l-334 -353l-45 37l301 328l-301 323zM446 915l334 -352v-24l-334 -353l-45 37l301 328l-301 323z" />
<glyph unicode="&#xbc;" horiz-adv-x="1742" d="M602 557v-57h-498v57h230v737h-230v58h293v-795h205zM1288 1352h64l-781 -1352h-63zM1700 225v-57h-131v-168h-64v168h-428v20l287 664h66l-271 -627h346v310h64v-310h131z" />
<glyph unicode="&#xbd;" horiz-adv-x="1822" d="M602 557v-57h-498v57h230v737h-230v58h293v-795h205zM1288 1352h64l-781 -1352h-63zM1278 57h461v-57h-576v18l312 320q80 83 118.5 144t38.5 130q0 79 -51.5 136t-138.5 57q-90 0 -143.5 -59.5t-53.5 -141.5q0 -32 6 -69h-61q-8 31 -8 73q0 103 71.5 179.5t188.5 76.5 q113 0 184.5 -71t71.5 -177q0 -45 -13 -86t-43 -83t-54.5 -71t-71.5 -77z" />
<glyph unicode="&#xbe;" horiz-adv-x="1689" d="M625 764q0 -127 -86.5 -202t-206.5 -75q-95 0 -165 47t-114 119l47 33q88 -139 234 -139q99 0 162 60.5t63 156.5q0 94 -63.5 148.5t-176.5 54.5h-71v20l250 307h-392v58h494v-21l-254 -309q49 0 96.5 -15t89.5 -44.5t67.5 -81t25.5 -117.5zM1235 1352h63l-780 -1352h-63 zM1647 225v-57h-131v-168h-64v168h-428v20l287 664h65l-270 -627h346v310h64v-310h131z" />
<glyph unicode="&#xbf;" horiz-adv-x="901" d="M473 1004q32 0 56 -21t24 -57q0 -38 -24 -60t-56 -22q-31 0 -55.5 23t-24.5 59q0 35 24.5 56.5t55.5 21.5zM520 610q19 -44 19 -86q0 -70 -39 -126t-129 -142q-46 -45 -67 -66t-51.5 -57t-43.5 -61t-23 -60t-10 -73q0 -118 75.5 -193.5t188.5 -75.5q96 0 170 58.5 t107 169.5l57 -21q-35 -120 -123.5 -193t-208.5 -73q-139 0 -235 93.5t-96 232.5q0 38 7 72t25 67.5t32 56t47.5 58t49.5 51t58 55.5q54 51 78 77.5t44.5 66.5t20.5 83q0 35 -14 86h61z" />
<glyph unicode="&#xc0;" horiz-adv-x="1361" d="M709 1483h-54l-219 370v11h76zM1202 0l-149 358h-746l-147 -358h-68l574 1372h30l574 -1372h-68zM680 1257l-348 -839h696z" />
<glyph unicode="&#xc1;" horiz-adv-x="1361" d="M926 1853l-219 -370h-54l197 381h76v-11zM1202 0l-149 358h-746l-147 -358h-68l574 1372h30l574 -1372h-68zM680 1257l-348 -839h696z" />
<glyph unicode="&#xc2;" horiz-adv-x="1361" d="M682 1782l-260 -299h-55l299 381h30l299 -381h-55zM1202 0l-149 358h-746l-147 -358h-68l574 1372h30l574 -1372h-68zM680 1257l-348 -839h696z" />
<glyph unicode="&#xc3;" horiz-adv-x="1361" d="M463 1565h-60q-2 12 -2 39q0 61 31.5 107t93.5 46q26 0 52.5 -10.5t40.5 -19t43 -29.5l75 -53q32 -23 51.5 -33t42.5 -10q36 0 53 26.5t17 65.5v43h60q2 -12 2 -39q0 -62 -31.5 -108t-93.5 -46q-26 0 -53 11t-39.5 19t-43.5 30l-75 53q-59 43 -95 43t-52.5 -26.5 t-16.5 -65.5v-43zM1202 0l-149 358h-746l-147 -358h-68l574 1372h30l574 -1372h-68zM680 1257l-348 -839h696z" />
<glyph unicode="&#xc4;" horiz-adv-x="1361" d="M455 1581q-29 0 -49.5 20.5t-20.5 49.5t20.5 49t49.5 20t49 -20t20 -49t-20 -49.5t-49 -20.5zM907 1581q-29 0 -49 20.5t-20 49.5t20 49t49 20t49.5 -20t20.5 -49t-20.5 -49.5t-49.5 -20.5zM1202 0l-149 358h-746l-147 -358h-68l574 1372h30l574 -1372h-68zM680 1257 l-348 -839h696z" />
<glyph unicode="&#xc5;" horiz-adv-x="1361" d="M682 1466q-83 0 -142 58t-59 141t59 141t142 58t142 -58t59 -141t-59 -141t-142 -58zM682 1806q-60 0 -99.5 -40.5t-39.5 -100.5t39.5 -100.5t99.5 -40.5q59 0 99 40.5t40 100.5t-40 100.5t-99 40.5zM1202 0l-149 358h-746l-147 -358h-68l574 1372h30l574 -1372h-68z M680 1257l-348 -839h696z" />
<glyph unicode="&#xc6;" horiz-adv-x="1630" d="M1042 59h506v-59h-565l-63 360h-623l-186 -360h-70l704 1352h779v-60h-703l94 -526h445v-59h-434zM760 1260l-432 -840h581z" />
<glyph unicode="&#xc7;" horiz-adv-x="1452" d="M803 43q150 0 274.5 63.5t208.5 176.5l49 -39q-83 -111 -205 -180t-266 -82q78 -68 78 -160q0 -88 -62.5 -149.5t-166.5 -61.5q-61 0 -133 20v56q89 -19 127 -19q72 0 121 40t49 118q0 85 -80 154q-141 1 -267 55.5t-216.5 147t-143.5 221.5t-53 272q0 194 91 354 t248 251t345 91q163 0 302.5 -70t231.5 -194l-49 -39q-84 113 -208.5 176.5t-274.5 63.5q-130 0 -244.5 -49t-196 -133t-129 -200.5t-47.5 -248.5t47 -249.5t128.5 -202t196.5 -134t245 -49.5z" />
<glyph unicode="&#xc8;" horiz-adv-x="1148" d="M446 1864l197 -381h-53l-219 370v11h75zM1042 1352v-60h-766v-526h603v-59h-603v-648h791v-59h-856v1352h831z" />
<glyph unicode="&#xc9;" horiz-adv-x="1148" d="M860 1864v-11l-219 -370h-53l196 381h76zM1042 1352v-60h-766v-526h603v-59h-603v-648h791v-59h-856v1352h831z" />
<glyph unicode="&#xca;" horiz-adv-x="1148" d="M616 1782l-260 -299h-55l299 381h31l299 -381h-56zM276 59h791v-59h-856v1352h831v-60h-766v-526h603v-59h-603v-648z" />
<glyph unicode="&#xcb;" horiz-adv-x="1148" d="M389 1720q29 0 49.5 -20t20.5 -49t-20.5 -49.5t-49.5 -20.5t-49.5 20.5t-20.5 49.5t20.5 49t49.5 20zM842 1720q29 0 49 -20t20 -49t-20 -49.5t-49 -20.5t-49.5 20.5t-20.5 49.5t20.5 49t49.5 20zM1042 1352v-60h-766v-526h603v-59h-603v-648h791v-59h-856v1352h831z" />
<glyph unicode="&#xcc;" horiz-adv-x="487" d="M74 1864l196 -381h-53l-219 370v11h76zM276 1352v-1352h-65v1352h65z" />
<glyph unicode="&#xcd;" horiz-adv-x="487" d="M487 1864v-11l-219 -370h-53l197 381h75zM276 1352v-1352h-65v1352h65z" />
<glyph unicode="&#xce;" horiz-adv-x="487" d="M258 1864l299 -381h-55l-258 299l-260 -299h-56l299 381h31zM211 0v1352h65v-1352h-65z" />
<glyph unicode="&#xcf;" horiz-adv-x="487" d="M16 1720q29 0 49.5 -20t20.5 -49t-20.5 -49.5t-49.5 -20.5t-49 20.5t-20 49.5t20 49t49 20zM469 1720q29 0 49.5 -20t20.5 -49t-20.5 -49.5t-49.5 -20.5t-49.5 20.5t-20.5 49.5t20.5 49t49.5 20zM276 1352v-1352h-65v1352h65z" />
<glyph unicode="&#xd0;" horiz-adv-x="1429" d="M578 1352q176 0 317 -51.5t231.5 -142.5t138.5 -213.5t48 -266.5q0 -143 -48 -266t-138.5 -215t-231.5 -144.5t-317 -52.5h-367v588h-211v57h211v707h367zM578 59q159 0 287 49t209.5 134t125 196.5t43.5 239.5q0 129 -43.5 239.5t-125 194.5t-209.5 132t-287 48h-302 v-647h310v-57h-310v-529h302z" />
<glyph unicode="&#xd1;" horiz-adv-x="1441" d="M502 1565h-60q-2 12 -2 39q0 61 31.5 107t93.5 46q26 0 52.5 -10.5t39 -18.5t43.5 -30l76 -53q32 -23 51.5 -33t42.5 -10q36 0 53 26.5t17 65.5v43h59q2 -12 2 -39q0 -62 -31 -108t-93 -46q-26 0 -53 11t-39.5 19t-43.5 30l-75 53q-59 43 -95 43t-52.5 -26.5t-16.5 -65.5 v-43zM1165 1352h66v-1372h-31l-924 1230v-1210h-65v1372h31l923 -1241v1221z" />
<glyph unicode="&#xd2;" d="M633 1864l196 -381h-53l-219 370v11h76zM801 1372q188 0 346 -91t250 -251t92 -354q0 -145 -54.5 -274.5t-146.5 -221.5t-219 -146t-268 -54q-189 0 -346 92t-247.5 252t-90.5 352q0 194 91 354t248 251t345 91zM803 1309q-172 0 -314 -83t-222.5 -227.5t-80.5 -320.5 q0 -132 47.5 -249.5t129 -202t196 -134t244.5 -49.5q172 0 313.5 84t222 229.5t80.5 321.5q0 175 -80.5 319.5t-222 228t-313.5 83.5z" />
<glyph unicode="&#xd3;" d="M1047 1864v-11l-220 -370h-53l197 381h76zM801 1372q188 0 346 -91t250 -251t92 -354q0 -145 -54.5 -274.5t-146.5 -221.5t-219 -146t-268 -54q-189 0 -346 92t-247.5 252t-90.5 352q0 194 91 354t248 251t345 91zM803 1309q-172 0 -314 -83t-222.5 -227.5t-80.5 -320.5 q0 -132 47.5 -249.5t129 -202t196 -134t244.5 -49.5q172 0 313.5 84t222 229.5t80.5 321.5q0 175 -80.5 319.5t-222 228t-313.5 83.5z" />
<glyph unicode="&#xd4;" d="M803 1782l-260 -299h-56l299 381h31l299 -381h-55zM801 1372q188 0 346 -91t250 -251t92 -354q0 -145 -54.5 -274.5t-146.5 -221.5t-219 -146t-268 -54q-189 0 -346 92t-247.5 252t-90.5 352q0 194 91 354t248 251t345 91zM803 43q172 0 313.5 84t222 229.5t80.5 321.5 q0 175 -80.5 319.5t-222 228t-313.5 83.5t-314 -83t-222.5 -227.5t-80.5 -320.5q0 -132 47.5 -249.5t129 -202t196 -134t244.5 -49.5z" />
<glyph unicode="&#xd5;" d="M647 1757q26 0 52.5 -10.5t39 -18.5t43.5 -30l76 -53q32 -23 51.5 -33t42.5 -10q36 0 53 26.5t17 65.5v43h59q2 -12 2 -39q0 -62 -31.5 -108t-93.5 -46q-9 0 -17.5 1t-17.5 3.5t-15 4t-16 7t-13.5 7t-15 9.5t-13 8.5t-14.5 9.5l-13 10l-75 53q-59 43 -95 43t-52.5 -26.5 t-16.5 -65.5v-43h-60q-2 12 -2 39q0 61 31.5 107t93.5 46zM801 1372q188 0 346 -91t250 -251t92 -354q0 -145 -54.5 -274.5t-146.5 -221.5t-219 -146t-268 -54q-189 0 -346 92t-247.5 252t-90.5 352q0 194 91 354t248 251t345 91zM803 1309q-172 0 -314 -83t-222.5 -227.5 t-80.5 -320.5q0 -132 47.5 -249.5t129 -202t196 -134t244.5 -49.5q172 0 313.5 84t222 229.5t80.5 321.5q0 175 -80.5 319.5t-222 228t-313.5 83.5z" />
<glyph unicode="&#xd6;" d="M575 1720q29 0 49.5 -20t20.5 -49t-20.5 -49.5t-49.5 -20.5t-49 20.5t-20 49.5t20 49t49 20zM1028 1720q29 0 49.5 -20t20.5 -49t-20.5 -49.5t-49.5 -20.5t-49.5 20.5t-20.5 49.5t20.5 49t49.5 20zM801 1372q188 0 346 -91t250 -251t92 -354q0 -145 -54.5 -274.5 t-146.5 -221.5t-219 -146t-268 -54q-189 0 -346 92t-247.5 252t-90.5 352q0 194 91 354t248 251t345 91zM803 1309q-172 0 -314 -83t-222.5 -227.5t-80.5 -320.5q0 -132 47.5 -249.5t129 -202t196 -134t244.5 -49.5q172 0 313.5 84t222 229.5t80.5 321.5q0 175 -80.5 319.5 t-222 228t-313.5 83.5z" />
<glyph unicode="&#xd7;" horiz-adv-x="1146" d="M909 1010l41 -41l-336 -336l336 -336l-39 -41l-336 336l-335 -336l-41 39l336 338l-336 336l39 41l335 -336z" />
<glyph unicode="&#xd8;" d="M1499 1329l-184 -184q83 -94 128.5 -214.5t45.5 -254.5q0 -145 -54.5 -274.5t-146.5 -221.5t-219 -146t-268 -54q-134 0 -254.5 48t-212.5 136l-184 -184l-44 43l185 184q-83 94 -128.5 214.5t-45.5 254.5q0 194 91 354t248 251t345 91q135 0 256 -48t215 -136l184 184z M186 678q0 -248 152 -424l889 889q-177 166 -424 166q-130 0 -244.5 -49t-196 -133t-129 -200.5t-47.5 -248.5zM1419 678q0 245 -151 420l-889 -889q177 -166 424 -166q173 0 314.5 84t221.5 229.5t80 321.5z" />
<glyph unicode="&#xd9;" horiz-adv-x="1388" d="M524 1864l197 -381h-53l-219 370v11h75zM1200 1352v-836q0 -248 -136.5 -392t-367.5 -144q-235 0 -371.5 143.5t-136.5 392.5v836h66v-836q0 -224 120 -348.5t322 -124.5q199 0 319 125t120 348v836h65z" />
<glyph unicode="&#xda;" horiz-adv-x="1388" d="M938 1864v-11l-219 -370h-53l196 381h76zM1200 1352v-836q0 -248 -136.5 -392t-367.5 -144q-235 0 -371.5 143.5t-136.5 392.5v836h66v-836q0 -224 120 -348.5t322 -124.5q199 0 319 125t120 348v836h65z" />
<glyph unicode="&#xdb;" horiz-adv-x="1388" d="M694 1782l-260 -299h-55l299 381h31l299 -381h-56zM1135 1352h65v-836q0 -248 -136.5 -392t-367.5 -144q-235 0 -371.5 143.5t-136.5 392.5v836h66v-836q0 -224 120 -348.5t322 -124.5q199 0 319 125t120 348v836z" />
<glyph unicode="&#xdc;" horiz-adv-x="1388" d="M467 1720q29 0 49.5 -20t20.5 -49t-20.5 -49.5t-49.5 -20.5t-49.5 20.5t-20.5 49.5t20.5 49t49.5 20zM920 1720q29 0 49 -20t20 -49t-20 -49.5t-49 -20.5t-49.5 20.5t-20.5 49.5t20.5 49t49.5 20zM1200 1352v-836q0 -248 -136.5 -392t-367.5 -144q-235 0 -371.5 143.5 t-136.5 392.5v836h66v-836q0 -224 120 -348.5t322 -124.5q199 0 319 125t120 348v836h65z" />
<glyph unicode="&#xdd;" horiz-adv-x="1249" d="M868 1853l-219 -370h-53l197 381h75v-11zM1128 1352l-471 -766v-586h-65v586l-471 766h69l435 -711l434 711h69z" />
<glyph unicode="&#xde;" horiz-adv-x="1140" d="M276 1352v-273h383q183 0 286.5 -101.5t103.5 -264.5q0 -164 -103.5 -266.5t-286.5 -102.5h-383v-344h-65v1352h65zM655 1020h-379v-617h379q158 0 242 84.5t84 223.5t-84 224t-242 85z" />
<glyph unicode="&#xdf;" horiz-adv-x="1185" d="M580 1556q125 0 204.5 -70t79.5 -194q0 -74 -28 -162l-99 -311q-32 -108 -32 -151q0 -52 35 -83.5t139 -90.5q118 -68 155 -98q88 -73 88 -173q0 -78 -46.5 -136t-117 -85t-153.5 -27q-187 0 -320 156l39 39q115 -135 289 -135q108 0 176 48t68 142q0 68 -41.5 108.5 t-161.5 108.5q-114 64 -148 93q-65 56 -65 133q0 46 37 168l96 307q25 79 25 147q0 97 -60 152t-164 55q-138 0 -224.5 -95t-86.5 -267v-1135h-61v1135q0 195 107.5 308t269.5 113z" />
<glyph unicode="&#xe0;" horiz-adv-x="1056" d="M547 1151h-53l-220 436v10h76zM516 1004q159 0 256.5 -98t97.5 -281v-625h-61v174q-54 -91 -151 -142.5t-216 -51.5q-88 0 -162.5 27.5t-124 88t-49.5 144.5q0 117 92 185.5t244 68.5h367v133q0 155 -81.5 236t-215.5 81q-99 0 -172.5 -45t-136.5 -127l-45 37 q148 195 358 195zM444 39q150 0 257.5 91.5t107.5 227.5v78h-365q-132 0 -202 -51t-70 -141q0 -69 41.5 -117t101 -68t129.5 -20z" />
<glyph unicode="&#xe1;" horiz-adv-x="1056" d="M760 1587l-219 -436h-54l197 446h76v-10zM516 1004q159 0 256.5 -98t97.5 -281v-625h-61v174q-54 -91 -151 -142.5t-216 -51.5q-88 0 -162.5 27.5t-124 88t-49.5 144.5q0 117 92 185.5t244 68.5h367v133q0 155 -81.5 236t-215.5 81q-99 0 -172.5 -45t-136.5 -127l-45 37 q148 195 358 195zM444 39q150 0 257.5 91.5t107.5 227.5v78h-365q-132 0 -202 -51t-70 -141q0 -69 41.5 -117t101 -68t129.5 -20z" />
<glyph unicode="&#xe2;" horiz-adv-x="1056" d="M514 1503l-240 -352h-55l279 446h30l279 -446h-55zM516 1004q159 0 256.5 -98t97.5 -281v-625h-61v174q-54 -91 -151 -142.5t-216 -51.5q-88 0 -162.5 27.5t-124 88t-49.5 144.5q0 117 92 185.5t244 68.5h367v133q0 155 -81.5 236t-215.5 81q-99 0 -172.5 -45 t-136.5 -127l-45 37q148 195 358 195zM444 39q150 0 257.5 91.5t107.5 227.5v78h-365q-132 0 -202 -51t-70 -141q0 -69 41.5 -117t101 -68t129.5 -20z" />
<glyph unicode="&#xe3;" horiz-adv-x="1056" d="M313 1278h-59q-2 12 -2 39q0 66 31.5 114t95.5 48q66 0 127 -68l51 -55q26 -28 45 -39.5t43 -11.5q36 0 53 28t17 72v43h59q2 -12 2 -39q0 -41 -11.5 -76t-41 -60.5t-72.5 -25.5q-68 0 -129 68l-51 55q-26 28 -45 39.5t-43 11.5q-36 0 -53 -28t-17 -72v-43zM516 1004 q159 0 256.5 -98t97.5 -281v-625h-61v174q-54 -91 -151 -142.5t-216 -51.5q-88 0 -162.5 27.5t-124 88t-49.5 144.5q0 117 92 185.5t244 68.5h367v133q0 155 -81.5 236t-215.5 81q-99 0 -172.5 -45t-136.5 -127l-45 37q148 195 358 195zM444 39q150 0 257.5 91.5 t107.5 227.5v78h-365q-132 0 -202 -51t-70 -141q0 -69 41.5 -117t101 -68t129.5 -20z" />
<glyph unicode="&#xe4;" horiz-adv-x="1056" d="M317 1294q-29 0 -49 20.5t-20 49.5t20 49.5t49 20.5t49.5 -20.5t20.5 -49.5t-20.5 -49.5t-49.5 -20.5zM709 1294q-29 0 -49.5 20.5t-20.5 49.5t20.5 49.5t49.5 20.5t49 -20.5t20 -49.5t-20 -49.5t-49 -20.5zM516 1004q159 0 256.5 -98t97.5 -281v-625h-61v174 q-54 -91 -151 -142.5t-216 -51.5q-88 0 -162.5 27.5t-124 88t-49.5 144.5q0 117 92 185.5t244 68.5h367v133q0 155 -81.5 236t-215.5 81q-99 0 -172.5 -45t-136.5 -127l-45 37q148 195 358 195zM444 39q150 0 257.5 91.5t107.5 227.5v78h-365q-132 0 -202 -51t-70 -141 q0 -69 41.5 -117t101 -68t129.5 -20z" />
<glyph unicode="&#xe5;" horiz-adv-x="1056" d="M514 1165q-83 0 -142 58t-59 141t59 141t142 58t142 -58t59 -141t-59 -141t-142 -58zM514 1505q-60 0 -99.5 -40.5t-39.5 -100.5t39.5 -100.5t99.5 -40.5q59 0 99 40.5t40 100.5t-40 100.5t-99 40.5zM516 1004q159 0 256.5 -98t97.5 -281v-625h-61v174 q-54 -91 -151 -142.5t-216 -51.5q-88 0 -162.5 27.5t-124 88t-49.5 144.5q0 117 92 185.5t244 68.5h367v133q0 155 -81.5 236t-215.5 81q-99 0 -172.5 -45t-136.5 -127l-45 37q148 195 358 195zM444 39q150 0 257.5 91.5t107.5 227.5v78h-365q-132 0 -202 -51t-70 -141 q0 -69 41.5 -117t101 -68t129.5 -20z" />
<glyph unicode="&#xe6;" horiz-adv-x="1859" d="M1737 567l-6 -98h-857q7 -184 132 -307t305 -123q107 0 197 45.5t153 126.5l45 -37q-70 -91 -173 -142.5t-222 -51.5q-149 0 -271.5 80t-183.5 212q-35 -132 -149.5 -212t-262.5 -80q-140 0 -239 73t-99 205q0 126 91.5 197t244.5 71h367v101q0 155 -81.5 236t-215.5 81 q-99 0 -172.5 -45t-136.5 -127l-45 37q148 195 358 195q135 0 227.5 -72t118.5 -207q61 127 177.5 203t260.5 76q117 0 215.5 -51t160 -152.5t61.5 -233.5zM1292 944q-167 0 -285.5 -120t-129.5 -298h794q6 91 -22 170t-80.5 133t-124.5 84.5t-152 30.5zM449 39 q146 0 253 92t107 227v111h-365q-132 0 -202 -53.5t-70 -151.5q0 -76 42 -128.5t102.5 -74.5t132.5 -22z" />
<glyph unicode="&#xe7;" horiz-adv-x="1132" d="M625 39q107 0 197 45.5t153 126.5l45 -37q-61 -80 -148 -130t-188 -60q80 -66 80 -162q0 -88 -62.5 -149.5t-166.5 -61.5q-62 0 -134 20v56q89 -19 127 -19q72 0 121 40t49 118q0 85 -80 154q-136 1 -250 70t-179.5 186.5t-65.5 255.5q0 140 66.5 258t182.5 186t255 68 q120 0 221 -51.5t172 -143.5l-45 -37q-63 81 -152.5 126.5t-195.5 45.5q-187 0 -313 -130.5t-126 -321.5q0 -190 126 -321.5t311 -131.5z" />
<glyph unicode="&#xe8;" horiz-adv-x="1173" d="M649 1151h-53l-219 436v10h76zM1051 569q0 -21 -1.5 -42t-3.5 -31l-2 -11h-856q1 -190 126.5 -318t310.5 -128q107 0 197 45.5t153 126.5l45 -37q-70 -91 -173 -142.5t-222 -51.5q-137 0 -252.5 67.5t-182.5 185.5t-67 259q0 140 64.5 257.5t177.5 186t249 68.5 q117 0 215.5 -51t160 -152t61.5 -232zM610 944q-166 0 -284.5 -114.5t-135.5 -286.5h795q6 91 -22.5 167.5t-81 127t-122.5 78.5t-149 28z" />
<glyph unicode="&#xe9;" horiz-adv-x="1173" d="M862 1587l-219 -436h-53l196 446h76v-10zM1051 569q0 -21 -1.5 -42t-3.5 -31l-2 -11h-856q1 -190 126.5 -318t310.5 -128q107 0 197 45.5t153 126.5l45 -37q-70 -91 -173 -142.5t-222 -51.5q-137 0 -252.5 67.5t-182.5 185.5t-67 259q0 140 64.5 257.5t177.5 186 t249 68.5q117 0 215.5 -51t160 -152t61.5 -232zM610 944q-166 0 -284.5 -114.5t-135.5 -286.5h795q6 91 -22.5 167.5t-81 127t-122.5 78.5t-149 28z" />
<glyph unicode="&#xea;" horiz-adv-x="1173" d="M616 1503l-239 -352h-55l278 446h31l278 -446h-55zM1051 569q0 -21 -1.5 -42t-3.5 -31l-2 -11h-856q1 -190 126.5 -318t310.5 -128q107 0 197 45.5t153 126.5l45 -37q-70 -91 -173 -142.5t-222 -51.5q-137 0 -252.5 67.5t-182.5 185.5t-67 259q0 140 64.5 257.5 t177.5 186t249 68.5q117 0 215.5 -51t160 -152t61.5 -232zM610 944q-166 0 -284.5 -114.5t-135.5 -286.5h795q6 91 -22.5 167.5t-81 127t-122.5 78.5t-149 28z" />
<glyph unicode="&#xeb;" horiz-adv-x="1173" d="M420 1294q-29 0 -49.5 20.5t-20.5 49.5t20.5 49.5t49.5 20.5t49 -20.5t20 -49.5t-20 -49.5t-49 -20.5zM811 1294q-29 0 -49.5 20.5t-20.5 49.5t20.5 49.5t49.5 20.5t49.5 -20.5t20.5 -49.5t-20.5 -49.5t-49.5 -20.5zM1051 569q0 -21 -1.5 -42t-3.5 -31l-2 -11h-856 q1 -190 126.5 -318t310.5 -128q107 0 197 45.5t153 126.5l45 -37q-70 -91 -173 -142.5t-222 -51.5q-137 0 -252.5 67.5t-182.5 185.5t-67 259q0 140 64.5 257.5t177.5 186t249 68.5q117 0 215.5 -51t160 -152t61.5 -232zM610 944q-166 0 -284.5 -114.5t-135.5 -286.5h795 q6 91 -22.5 167.5t-81 127t-122.5 78.5t-149 28z" />
<glyph unicode="&#xec;" horiz-adv-x="466" d="M131 1597l135 -446h-53l-158 436v10h76zM264 983v-983h-61v983h61z" />
<glyph unicode="&#xed;" horiz-adv-x="466" d="M416 1597v-10l-158 -436h-53l135 446h76zM264 983v-983h-61v983h61z" />
<glyph unicode="&#xee;" horiz-adv-x="466" d="M248 1597l278 -446h-55l-238 352l-239 -352h-55l278 446h31zM203 0v983h61v-983h-61z" />
<glyph unicode="&#xef;" horiz-adv-x="466" d="M68 1434q29 0 49 -20.5t20 -49.5t-20 -49.5t-49 -20.5t-49.5 20.5t-20.5 49.5t20.5 49.5t49.5 20.5zM397 1434q29 0 49.5 -20.5t20.5 -49.5t-20.5 -49.5t-49.5 -20.5t-49 20.5t-20 49.5t20 49.5t49 20.5zM264 983v-983h-61v983h61z" />
<glyph unicode="&#xf0;" horiz-adv-x="1157" d="M827 903q40 -55 50.5 -69.5t42 -60.5t41 -64.5t29 -57.5t25.5 -65.5t12.5 -63t6.5 -73.5q0 -199 -128.5 -334t-327.5 -135q-131 0 -236 62t-162 166t-57 228q0 194 130 329.5t314 135.5q137 0 236 -70l-301 418l-326 -151l-24 51l317 147l-162 224l49 36l168 -233 l316 145l24 -51l-305 -141zM578 39q166 0 277.5 115.5t111.5 285.5q0 171 -113 286.5t-279 115.5q-165 0 -276 -115.5t-111 -286.5t111.5 -286t278.5 -115z" />
<glyph unicode="&#xf1;" horiz-adv-x="1128" d="M381 1278h-59q-3 18 -3 39q0 66 31.5 114t95.5 48q66 0 127 -68l52 -55q26 -28 45 -39.5t43 -11.5q36 0 52.5 28t16.5 72v43h60q2 -12 2 -39q0 -41 -11.5 -76t-41 -60.5t-72.5 -25.5q-68 0 -129 68l-51 55q-26 28 -45 39.5t-43 11.5q-36 0 -53 -28t-17 -72v-43zM586 1004 q167 0 261.5 -105.5t94.5 -273.5v-625h-61v625q0 142 -80 230.5t-217 88.5q-139 0 -229.5 -90.5t-90.5 -228.5v-625h-61v983h61v-158q46 84 130 131.5t192 47.5z" />
<glyph unicode="&#xf2;" horiz-adv-x="1255" d="M465 1597l197 -446h-54l-219 436v10h76zM627 1004q104 0 197.5 -39.5t161 -107.5t107.5 -163.5t40 -201.5q0 -141 -67.5 -259t-184.5 -185.5t-256 -67.5q-138 0 -253.5 67.5t-182 185.5t-66.5 259q0 142 66.5 260t182.5 185t255 67zM627 944q-187 0 -313 -130.5 t-126 -321.5q0 -192 125.5 -322.5t311.5 -130.5q188 0 315 131.5t127 321.5q0 191 -126.5 321.5t-313.5 130.5z" />
<glyph unicode="&#xf3;" horiz-adv-x="1255" d="M874 1597v-10l-219 -436h-53l197 446h75zM627 1004q104 0 197.5 -39.5t161 -107.5t107.5 -163.5t40 -201.5q0 -141 -67.5 -259t-184.5 -185.5t-256 -67.5q-138 0 -253.5 67.5t-182 185.5t-66.5 259q0 142 66.5 260t182.5 185t255 67zM627 944q-187 0 -313 -130.5 t-126 -321.5q0 -192 125.5 -322.5t311.5 -130.5q188 0 315 131.5t127 321.5q0 191 -126.5 321.5t-313.5 130.5z" />
<glyph unicode="&#xf4;" horiz-adv-x="1255" d="M629 1503l-240 -352h-55l278 446h31l279 -446h-56zM627 1004q104 0 197.5 -39.5t161 -107.5t107.5 -163.5t40 -201.5q0 -141 -67.5 -259t-184.5 -185.5t-256 -67.5q-138 0 -253.5 67.5t-182 185.5t-66.5 259q0 142 66.5 260t182.5 185t255 67zM625 39q188 0 315 131.5 t127 321.5q0 191 -126.5 321.5t-313.5 130.5t-313 -130.5t-126 -321.5q0 -192 125.5 -322.5t311.5 -130.5z" />
<glyph unicode="&#xf5;" horiz-adv-x="1255" d="M494 1479q66 0 127 -68l51 -55q26 -28 45 -39.5t43 -11.5q36 0 52.5 28t16.5 72v43h60q2 -12 2 -39q0 -41 -11.5 -76t-41 -60.5t-72.5 -25.5q-68 0 -129 68l-51 55q-26 28 -45 39.5t-43 11.5q-36 0 -53 -28t-17 -72v-43h-59q-2 12 -2 39q0 66 31.5 114t95.5 48zM627 1004 q104 0 197.5 -39.5t161 -107.5t107.5 -163.5t40 -201.5q0 -141 -67.5 -259t-184.5 -185.5t-256 -67.5q-138 0 -253.5 67.5t-182 185.5t-66.5 259q0 142 66.5 260t182.5 185t255 67zM627 944q-187 0 -313 -130.5t-126 -321.5q0 -192 125.5 -322.5t311.5 -130.5 q188 0 315 131.5t127 321.5q0 191 -126.5 321.5t-313.5 130.5z" />
<glyph unicode="&#xf6;" horiz-adv-x="1255" d="M432 1434q29 0 49.5 -20.5t20.5 -49.5t-20.5 -49.5t-49.5 -20.5t-49.5 20.5t-20.5 49.5t20.5 49.5t49.5 20.5zM823 1434q29 0 49.5 -20.5t20.5 -49.5t-20.5 -49.5t-49.5 -20.5t-49 20.5t-20 49.5t20 49.5t49 20.5zM627 1004q104 0 197.5 -39.5t161 -107.5t107.5 -163.5 t40 -201.5q0 -141 -67.5 -259t-184.5 -185.5t-256 -67.5q-138 0 -253.5 67.5t-182 185.5t-66.5 259q0 142 66.5 260t182.5 185t255 67zM627 944q-187 0 -313 -130.5t-126 -321.5q0 -192 125.5 -322.5t311.5 -130.5q188 0 315 131.5t127 321.5q0 191 -126.5 321.5 t-313.5 130.5z" />
<glyph unicode="&#xf7;" horiz-adv-x="1146" d="M567 1051q29 0 49.5 -20.5t20.5 -49.5t-20.5 -49.5t-49.5 -20.5t-49 20.5t-20 49.5t20 49.5t49 20.5zM1010 662v-58h-875v58h875zM567 352q29 0 49.5 -20t20.5 -49t-20.5 -49.5t-49.5 -20.5t-49 20.5t-20 49.5t20 49t49 20z" />
<glyph unicode="&#xf8;" horiz-adv-x="1284" d="M1153 961l-131 -134q125 -141 125 -335q0 -139 -68 -257t-185 -186.5t-255 -68.5q-193 0 -334 131l-131 -131l-43 43l131 131q-125 144 -125 338q0 140 67 258t183 186t254 68q195 0 340 -132l129 132zM641 944q-187 0 -312.5 -130.5t-125.5 -321.5q0 -165 102 -295 l633 632q-125 115 -297 115zM639 39q188 0 315 131.5t127 321.5q0 171 -102 292l-633 -632q126 -113 293 -113z" />
<glyph unicode="&#xf9;" horiz-adv-x="1112" d="M393 1597l197 -446h-53l-220 436v10h76zM926 983v-625q0 -170 -106 -274t-263 -104q-158 0 -264.5 103.5t-106.5 274.5v625h62v-625q0 -149 88 -234t221 -85q131 0 219 85t88 234v625h62z" />
<glyph unicode="&#xfa;" horiz-adv-x="1112" d="M803 1597v-10l-219 -436h-54l197 446h76zM926 983v-625q0 -170 -106 -274t-263 -104q-158 0 -264.5 103.5t-106.5 274.5v625h62v-625q0 -149 88 -234t221 -85q131 0 219 85t88 234v625h62z" />
<glyph unicode="&#xfb;" horiz-adv-x="1112" d="M557 1503l-240 -352h-55l279 446h30l279 -446h-55zM864 983h62v-625q0 -170 -106 -274t-263 -104q-158 0 -264.5 103.5t-106.5 274.5v625h62v-625q0 -149 88 -234t221 -85q131 0 219 85t88 234v625z" />
<glyph unicode="&#xfc;" horiz-adv-x="1112" d="M360 1434q29 0 49.5 -20.5t20.5 -49.5t-20.5 -49.5t-49.5 -20.5t-49 20.5t-20 49.5t20 49.5t49 20.5zM752 1434q29 0 49 -20.5t20 -49.5t-20 -49.5t-49 -20.5t-49.5 20.5t-20.5 49.5t20.5 49.5t49.5 20.5zM926 983v-625q0 -170 -106 -274t-263 -104q-158 0 -264.5 103.5 t-106.5 274.5v625h62v-625q0 -149 88 -234t221 -85q131 0 219 85t88 234v625h62z" />
<glyph unicode="&#xfd;" horiz-adv-x="1060" d="M776 1587l-219 -436h-53l196 446h76v-10zM920 983h67l-498 -1163q-48 -112 -118 -160.5t-166 -48.5q-67 0 -131 18v56q80 -17 127 -17q79 0 135.5 40.5t99.5 137.5l70 166l-432 971h67l398 -891z" />
<glyph unicode="&#xfe;" horiz-adv-x="1300" d="M686 1004q103 0 194.5 -40.5t156.5 -109t103 -163t38 -199.5q0 -141 -64 -258.5t-177 -185.5t-251 -68t-254.5 70t-167.5 186v-605h-61v1905h61v-788q51 116 167.5 186t254.5 70zM686 39q123 0 220.5 60t151.5 163.5t54 229.5q0 191 -121 321.5t-305 130.5 q-82 0 -155.5 -27t-134 -79.5t-96.5 -142t-36 -203.5t36 -203.5t96.5 -142.5t134 -80t155.5 -27z" />
<glyph unicode="&#xff;" horiz-adv-x="1060" d="M334 1294q-29 0 -49.5 20.5t-20.5 49.5t20.5 49.5t49.5 20.5t49 -20.5t20 -49.5t-20 -49.5t-49 -20.5zM725 1294q-29 0 -49.5 20.5t-20.5 49.5t20.5 49.5t49.5 20.5t49.5 -20.5t20.5 -49.5t-20.5 -49.5t-49.5 -20.5zM920 983h67l-498 -1163q-48 -112 -118 -160.5 t-166 -48.5q-67 0 -131 18v56q80 -17 127 -17q79 0 135.5 40.5t99.5 137.5l70 166l-432 971h67l398 -891z" />
<glyph unicode="&#x152;" horiz-adv-x="2357" d="M1485 59h790v-59h-856v387q-69 -183 -238.5 -295t-379.5 -112q-189 0 -346 92t-247.5 252t-90.5 352q0 194 91 354t248 251t345 91q210 0 379.5 -112t238.5 -295v387h832v-60h-766v-528h602v-59h-602v-646zM803 43q173 0 314.5 84t221.5 229.5t80 321.5q0 175 -80 319.5 t-221.5 228t-314.5 83.5q-130 0 -244.5 -49t-196 -133t-129 -200.5t-47.5 -248.5t47 -249.5t128.5 -202t196.5 -134t245 -49.5z" />
<glyph unicode="&#x153;" horiz-adv-x="2076" d="M1954 569l-6 -84h-836q2 -193 117.5 -319.5t298.5 -126.5q107 0 197 45.5t153 126.5l45 -37q-70 -91 -173 -142.5t-222 -51.5q-157 0 -277 88t-172 233q-54 -144 -175.5 -232.5t-278.5 -88.5q-137 0 -252.5 68.5t-182.5 186.5t-67 257q0 140 67 258t183 186t254 68 q157 0 277.5 -88t174.5 -232q51 143 168 231.5t271 88.5q87 0 165.5 -30t139 -85t96 -138t35.5 -182zM625 39q186 0 304 130.5t118 322.5q0 193 -117.5 322.5t-302.5 129.5q-187 0 -313 -130.5t-126 -321.5q0 -190 126 -321.5t311 -131.5zM1513 944q-164 0 -274 -113.5 t-125 -287.5h774q6 91 -22.5 167.5t-81 127t-122.5 78.5t-149 28z" />
<glyph unicode="&#x178;" horiz-adv-x="1249" d="M397 1581q-29 0 -49 20.5t-20 49.5t20 49t49 20t49.5 -20t20.5 -49t-20.5 -49.5t-49.5 -20.5zM850 1581q-29 0 -49.5 20.5t-20.5 49.5t20.5 49t49.5 20t49.5 -20t20.5 -49t-20.5 -49.5t-49.5 -20.5zM1128 1352l-471 -766v-586h-65v586l-471 766h69l435 -711l434 711h69z " />
<glyph unicode="&#x2c6;" horiz-adv-x="710" d="M649 1151h-55l-238 352l-239 -352h-56l279 446h31z" />
<glyph unicode="&#x2dc;" horiz-adv-x="647" d="M188 1479q66 0 127 -68l52 -55q26 -28 45 -39.5t43 -11.5q36 0 52.5 28t16.5 72v43h60q2 -12 2 -39q0 -41 -11.5 -76t-41 -60.5t-72.5 -25.5q-68 0 -129 68l-51 55q-26 28 -45 39.5t-43 11.5q-36 0 -53 -28t-17 -72v-43h-60q-2 12 -2 39q0 66 31.5 114t95.5 48z" />
<glyph unicode="&#x2000;" horiz-adv-x="932" />
<glyph unicode="&#x2001;" horiz-adv-x="1864" />
<glyph unicode="&#x2002;" horiz-adv-x="932" />
<glyph unicode="&#x2003;" horiz-adv-x="1864" />
<glyph unicode="&#x2004;" horiz-adv-x="621" />
<glyph unicode="&#x2005;" horiz-adv-x="466" />
<glyph unicode="&#x2006;" horiz-adv-x="310" />
<glyph unicode="&#x2007;" horiz-adv-x="310" />
<glyph unicode="&#x2008;" horiz-adv-x="233" />
<glyph unicode="&#x2009;" horiz-adv-x="372" />
<glyph unicode="&#x200a;" horiz-adv-x="103" />
<glyph unicode="&#x2010;" horiz-adv-x="696" d="M573 662v-58h-450v58h450z" />
<glyph unicode="&#x2011;" horiz-adv-x="696" d="M573 662v-58h-450v58h450z" />
<glyph unicode="&#x2012;" horiz-adv-x="696" d="M573 662v-58h-450v58h450z" />
<glyph unicode="&#x2013;" horiz-adv-x="1024" d="M922 662v-58h-820v58h820z" />
<glyph unicode="&#x2014;" horiz-adv-x="2048" d="M1946 662v-58h-1844v58h1844z" />
<glyph unicode="&#x2018;" horiz-adv-x="542" d="M330 1352l-41 -492h-80l67 492h54z" />
<glyph unicode="&#x2019;" horiz-adv-x="542" d="M334 1352l-68 -492h-53l41 492h80z" />
<glyph unicode="&#x201a;" horiz-adv-x="542" d="M334 129l-68 -491h-53l41 491h80z" />
<glyph unicode="&#x201c;" horiz-adv-x="829" d="M330 1352l-41 -492h-80l67 492h54zM616 1352l-41 -492h-79l67 492h53z" />
<glyph unicode="&#x201d;" horiz-adv-x="829" d="M334 1352l-68 -492h-53l41 492h80zM621 1352l-68 -492h-53l41 492h80z" />
<glyph unicode="&#x201e;" horiz-adv-x="829" d="M334 129l-68 -491h-53l41 491h80zM621 129l-68 -491h-53l41 491h80z" />
<glyph unicode="&#x2022;" horiz-adv-x="690" d="M346 758q86 0 151.5 -60t65.5 -157t-65.5 -157t-151.5 -60q-87 0 -153 60t-66 157t66 157t153 60z" />
<glyph unicode="&#x2026;" horiz-adv-x="1536" d="M274 139q33 0 57.5 -22t24.5 -60q0 -35 -24.5 -56t-57.5 -21q-30 0 -53.5 21t-23.5 56q0 38 23.5 60t53.5 22zM766 139q33 0 57.5 -22t24.5 -60q0 -35 -24.5 -56t-57.5 -21q-30 0 -54 21t-24 56q0 37 24 59.5t54 22.5zM1257 139q33 0 57.5 -22t24.5 -60q0 -35 -24.5 -56 t-57.5 -21q-30 0 -53.5 21t-23.5 56q0 38 23.5 60t53.5 22z" />
<glyph unicode="&#x202f;" horiz-adv-x="372" />
<glyph unicode="&#x2039;" horiz-adv-x="569" d="M428 915l45 -41l-301 -323l301 -328l-45 -37l-334 353v24z" />
<glyph unicode="&#x203a;" horiz-adv-x="569" d="M141 915l334 -352v-24l-334 -353l-45 37l301 328l-301 323z" />
<glyph unicode="&#x205f;" horiz-adv-x="466" />
<glyph unicode="&#x20ac;" horiz-adv-x="1400" d="M858 43q244 0 379 170l47 -39q-73 -93 -183 -143.5t-247 -50.5q-232 0 -393.5 140t-212.5 369h-232v58h222q-11 75 -11 129q0 60 9 119h-213v57h223q47 233 210.5 376.5t397.5 143.5q137 0 247 -50.5t183 -143.5l-47 -39q-135 170 -379 170q-213 0 -356 -125t-187 -332 h693l-17 -57h-686q-8 -52 -8 -119q0 -61 10 -129h615l-17 -58h-588q47 -203 188.5 -324.5t352.5 -121.5z" />
<glyph unicode="&#x2122;" horiz-adv-x="1923" d="M1767 1366v-934h-65v768l-330 -475h-26l-330 475v-768h-64v934h25l383 -551l381 551h26zM774 1352v-58h-340v-862h-63v862h-340v58h743z" />
<glyph unicode="&#x25fc;" horiz-adv-x="983" d="M0 983h983v-983h-983v983z" />
</font>
</defs>
</svg>
