<?xml version="1.0" standalone="no"?>
<!DOCTYPE svg PUBLIC "-//W3C//DTD SVG 1.1//EN" "http://www.w3.org/Graphics/SVG/1.1/DTD/svg11.dtd" >
<svg xmlns="http://www.w3.org/2000/svg">
<metadata></metadata>
<defs>
<font id="ceramedium" horiz-adv-x="1167" >
<font-face units-per-em="2048" ascent="1655" descent="-393" />
<missing-glyph horiz-adv-x="573" />
<glyph unicode="&#xfb01;" horiz-adv-x="1216" d="M193 1208q0 177 95.5 264t262.5 87q77 0 139 -19v-182q-50 6 -86 6q-98 0 -147 -39.5t-49 -134.5v-184h237v-187h-237v-819h-215v819h-144v187h144v202zM954 1524q60 0 104 -42t44 -102q0 -59 -43.5 -100t-104.5 -41q-62 0 -104.5 40.5t-42.5 100.5t43 102t104 42zM846 0 v1006h215v-1006h-215z" />
<glyph unicode="&#xfb02;" horiz-adv-x="1218" d="M193 1208q0 177 95.5 264t262.5 87q77 0 139 -19v-182q-50 6 -86 6q-98 0 -147 -39.5t-49 -134.5v-184h237v-187h-237v-819h-215v819h-144v187h144v202zM846 1536h215v-1536h-215v1536z" />
<glyph horiz-adv-x="0" />
<glyph horiz-adv-x="682" />
<glyph unicode=" "  horiz-adv-x="573" />
<glyph unicode="&#x09;" horiz-adv-x="573" />
<glyph unicode="&#xa0;" horiz-adv-x="573" />
<glyph unicode="!" horiz-adv-x="667" d="M461 1352l-39 -891h-178l-41 891h258zM334 295q66 0 112 -45.5t46 -114.5q0 -68 -45.5 -113t-112.5 -45q-68 0 -114 45t-46 113q0 69 46 114.5t114 45.5z" />
<glyph unicode="&#x22;" horiz-adv-x="1024" d="M449 1352l-101 -549h-166l19 549h248zM879 1352l-101 -549h-166l19 549h248z" />
<glyph unicode="#" horiz-adv-x="1257" d="M1200 801h-201l-34 -250h192v-182h-217l-49 -369h-178l49 369h-350l-50 -369h-178l49 369h-176v182h201l35 250h-191v182h215l48 369h182l-51 -369h348l49 369h180l-49 -369h176v-182zM436 545h350l35 262h-350z" />
<glyph unicode="$" horiz-adv-x="1099" d="M989 395q0 -141 -94.5 -232.5t-247.5 -113.5v-244h-198v246q-123 23 -218 95.5t-157 183.5l149 110q90 -145 226 -190v379q-295 113 -295 340q0 124 81.5 209t213.5 112v244h198v-240q202 -37 311 -227l-147 -111q-71 108 -164 138v-334l37 -15q149 -58 227 -142.5 t78 -207.5zM369 971q0 -78 80 -125v241q-80 -36 -80 -116zM647 246q59 16 93 53t34 92q0 52 -32.5 88t-94.5 66v-299z" />
<glyph unicode="%" horiz-adv-x="1681" d="M436 1374q142 0 242 -96t100 -236q0 -141 -100 -237t-242 -96q-143 0 -242.5 95.5t-99.5 237.5q0 140 99.5 236t242.5 96zM1319 1352l-776 -1352h-181l775 1352h182zM436 1223q-74 0 -122 -52t-48 -129q0 -78 47.5 -129t122.5 -51q74 0 122 51t48 129q0 77 -48.5 129 t-121.5 52zM1243 645q142 0 243 -96.5t101 -237.5q0 -140 -101 -235.5t-243 -95.5t-241 95.5t-99 235.5q0 142 99 238t241 96zM1245 492q-75 0 -122.5 -51.5t-47.5 -129.5q0 -77 47.5 -127.5t122.5 -50.5q72 0 120 51t48 127q0 78 -48 129.5t-120 51.5z" />
<glyph unicode="&#x26;" horiz-adv-x="1329" d="M1274 600q-17 -25 -71.5 -106t-89 -130t-69.5 -92l224 -272h-256l-105 127q-173 -150 -381 -150q-185 0 -306.5 101t-121.5 262q0 52 15.5 101t39 87.5t64 80.5t77.5 73.5t93 73.5q-65 83 -98 156t-33 153q0 136 86 222.5t233 86.5q142 0 229 -81.5t87 -205.5 q0 -99 -58 -184t-169 -172l245 -297q58 81 193 285zM575 1186q-58 0 -88 -32.5t-30 -88.5q0 -50 23 -94t71 -103q71 55 105 101.5t34 101.5q0 52 -28.5 83.5t-86.5 31.5zM537 172q126 0 241 109l-272 329q-41 -31 -62.5 -48.5t-49.5 -45t-41.5 -48.5t-23.5 -49.5t-10 -58.5 q0 -83 62 -135.5t156 -52.5z" />
<glyph unicode="'" horiz-adv-x="595" d="M449 1352l-101 -549h-166l19 549h248z" />
<glyph unicode="(" horiz-adv-x="714" d="M571 1507l88 -135q-311 -205 -311 -754q0 -550 311 -751l-88 -135q-86 40 -158 108t-133 172.5t-95.5 260t-34.5 345.5q0 154 23 286t62 227.5t94 171.5t114.5 124.5t127.5 79.5z" />
<glyph unicode=")" horiz-adv-x="714" d="M145 1507q67 -31 125.5 -79.5t113.5 -124.5t93.5 -171.5t62 -227.5t23.5 -286q0 -190 -34.5 -345.5t-95.5 -260t-132 -172.5t-156 -108l-90 135q312 201 312 751q0 549 -312 754z" />
<glyph unicode="*" horiz-adv-x="897" d="M809 1290l-188 -135l188 -135l-64 -109l-210 97l-23 -232h-127l-23 232l-210 -97l-64 109l188 135l-188 135l64 111l210 -96l23 231h127l23 -231l210 96z" />
<glyph unicode="+" horiz-adv-x="1146" d="M1042 557h-360v-379h-209v379h-369v186h369v375h209v-375h360v-186z" />
<glyph unicode="," horiz-adv-x="552" d="M420 217l-94 -582h-174l18 582h250z" />
<glyph unicode="-" horiz-adv-x="704" d="M604 741v-182h-504v182h504z" />
<glyph unicode="." horiz-adv-x="552" d="M279 295q66 0 111.5 -45.5t45.5 -114.5q0 -68 -45 -113t-112 -45q-68 0 -115 45t-47 113t47 114t115 46z" />
<glyph unicode="/" horiz-adv-x="1331" d="M1321 1597l-1071 -1845h-240l1071 1845h240z" />
<glyph unicode="0" horiz-adv-x="1353" d="M676 1118q159 0 293 -75t212.5 -206.5t78.5 -289.5q0 -157 -78.5 -288.5t-213 -207.5t-294.5 -76q-159 0 -292 76t-210.5 207.5t-77.5 288.5q0 158 77.5 289.5t211 206.5t293.5 75zM676 920q-157 0 -258 -106t-101 -267q0 -160 101 -266.5t258 -106.5q155 0 257.5 107 t102.5 266q0 160 -102.5 266.5t-257.5 106.5z" />
<glyph unicode="1" horiz-adv-x="1032" d="M670 1096v-910h278v-186h-796v186h301v713h-281v197h498z" />
<glyph unicode="2" horiz-adv-x="1161" d="M582 186h471v-186h-965v49l412 307q54 40 77.5 58.5t65 52.5t60 56.5t40.5 54.5t30.5 64t8.5 67q0 90 -57 151.5t-156 61.5q-101 0 -160 -62.5t-59 -150.5q0 -39 10 -97h-213q-14 55 -14 115q0 75 31 145t86.5 125t140 88t184.5 33q189 0 310 -110t121 -279 q0 -72 -23 -136.5t-70 -122.5t-99 -105t-128 -103z" />
<glyph unicode="3" horiz-adv-x="1079" d="M625 602q68 -13 130 -45.5t113 -83.5t81 -126t30 -163q0 -135 -68.5 -240.5t-180.5 -160.5t-245 -55q-163 0 -285 80.5t-190 209.5l152 109q62 -95 137 -148t180 -53q122 0 200.5 70.5t78.5 185.5t-82 178.5t-232 63.5h-143v59l311 416h-506v197h842v-60z" />
<glyph unicode="4" horiz-adv-x="1144" d="M1116 186v-186h-186v-248h-215v248h-676v59l422 1037h225l-375 -910h404v418h215v-418h186z" />
<glyph unicode="5" horiz-adv-x="1120" d="M561 612q88 0 169.5 -27.5t146.5 -79t104 -134.5t39 -185q0 -136 -69 -242t-181 -161t-246 -55q-168 0 -291.5 80.5t-193.5 209.5l151 109q62 -95 140 -148t188 -53q121 0 200 71t79 187t-80.5 178t-231.5 62h-311v672h741v-197h-530v-305q99 18 176 18z" />
<glyph unicode="6" horiz-adv-x="1138" d="M604 897q87 0 168 -34.5t142 -93.5t98 -144t37 -181q0 -131 -65.5 -239t-175.5 -168t-239 -60t-238 60t-174 168t-65 241q0 60 12 112t42.5 110.5t54 94.5t75.5 111l338 478h256l-325 -461q27 6 59 6zM569 176q111 0 188 76.5t77 191.5t-77 192t-188 77 q-112 0 -188 -77.5t-76 -191.5q0 -115 75.5 -191.5t188.5 -76.5z" />
<glyph unicode="7" horiz-adv-x="1050" d="M74 1096h927v-60l-651 -1284h-233l590 1147h-633v197z" />
<glyph unicode="8" horiz-adv-x="1193" d="M795 702q292 -111 292 -350q0 -169 -135.5 -272t-353.5 -103q-220 0 -357 103t-137 272q0 239 293 350q-229 120 -229 326q0 163 121.5 254.5t308.5 91.5q120 0 215 -39t153 -118.5t58 -188.5q0 -209 -229 -326zM598 1196q-98 0 -160.5 -46.5t-62.5 -129.5 q0 -74 53.5 -121.5t167.5 -97.5q112 48 166.5 96.5t54.5 122.5q0 82 -62 129t-157 47zM598 158q130 0 200 55t70 147q0 48 -19.5 86.5t-59 67.5t-84 50t-109.5 44q-65 -23 -109.5 -44.5t-84 -50.5t-59 -67t-19.5 -86q0 -92 71 -147t203 -55z" />
<glyph unicode="9" horiz-adv-x="1138" d="M571 1118q128 0 237.5 -60t175 -168t65.5 -241q0 -111 -42 -197t-145 -229l-332 -471h-256l322 455q-27 -6 -61 -6q-115 0 -216.5 57.5t-164 162t-62.5 230.5q0 132 65.5 240t175 167.5t238.5 59.5zM569 383q113 0 189 77t76 191q0 115 -76 193t-189 78 q-111 0 -187.5 -77.5t-76.5 -193.5q0 -115 76.5 -191.5t187.5 -76.5z" />
<glyph unicode=":" horiz-adv-x="552" d="M279 1020q66 0 111.5 -45.5t45.5 -114.5q0 -68 -45 -113t-112 -45q-68 0 -115 45t-47 113t47 114t115 46zM279 295q66 0 111.5 -45.5t45.5 -114.5q0 -68 -45 -113t-112 -45q-68 0 -115 45t-47 113t47 114t115 46z" />
<glyph unicode=";" horiz-adv-x="552" d="M279 1020q66 0 111.5 -45.5t45.5 -114.5q0 -68 -45 -113t-112 -45q-68 0 -115 45t-47 113t47 114t115 46zM420 217l-94 -582h-174l18 582h250z" />
<glyph unicode="&#x3c;" horiz-adv-x="1146" d="M1014 1083v-194l-563 -238l563 -237v-195l-924 402v61z" />
<glyph unicode="=" horiz-adv-x="1146" d="M1024 961v-187h-899v187h899zM1024 526v-186h-899v186h899z" />
<glyph unicode="&#x3e;" horiz-adv-x="1146" d="M133 1083l924 -401v-61l-924 -402v195l563 237l-563 238v194z" />
<glyph unicode="?" horiz-adv-x="917" d="M457 1374q160 0 270.5 -98t110.5 -250q0 -64 -25.5 -122t-61 -99t-96.5 -96q-46 -40 -61.5 -54.5t-41 -43t-34 -49.5t-8.5 -46q0 -23 8 -55h-184q-23 52 -23 94q0 36 12.5 68.5t40.5 65.5t48.5 53t60.5 55q82 73 111.5 113t29.5 98q0 75 -48 121.5t-117 46.5 q-140 0 -199 -177l-180 78q42 144 143.5 220.5t243.5 76.5zM434 295q68 0 114 -45.5t46 -114.5q0 -68 -46 -113t-114 -45q-67 0 -113.5 45t-46.5 113t46.5 114t113.5 46z" />
<glyph unicode="@" horiz-adv-x="1918" d="M985 1354q179 0 337 -61.5t269 -165.5t175.5 -246t64.5 -299q0 -166 -73 -284t-196.5 -174t-285.5 -56h-76v116q-45 -67 -121.5 -103t-169.5 -36q-178 0 -293.5 125t-115.5 315t116 315.5t295 125.5q88 0 161.5 -32.5t119.5 -92.5v106h188v-663q126 9 197.5 95t71.5 243 q0 261 -183 430.5t-477 169.5q-205 0 -368.5 -86.5t-256 -242.5t-92.5 -353q0 -199 94 -356.5t253 -242.5t352 -85q127 0 256 39l35 -156q-140 -55 -312 -55q-177 0 -335.5 65t-274.5 177t-184 271t-68 339q0 184 70.5 344.5t191 272.5t285.5 176.5t350 64.5zM948 231 q95 0 163.5 65.5t68.5 190.5q0 124 -67 189t-163 65q-102 0 -171.5 -71t-69.5 -185q0 -113 68.5 -183.5t170.5 -70.5z" />
<glyph unicode="A" horiz-adv-x="1355" d="M1077 0l-96 225h-608l-97 -225h-231l596 1374h74l596 -1374h-234zM901 412l-223 561l-225 -561h448z" />
<glyph unicode="B" horiz-adv-x="1265" d="M934 737q120 -38 187 -128t67 -216q0 -172 -120.5 -282.5t-317.5 -110.5h-478h-102v1352h213h260q183 0 294.5 -100.5t111.5 -260.5q0 -159 -115 -254zM623 1161h-240v-364h240q100 0 154 50t54 134t-53.5 132t-154.5 48zM731 190q114 0 176 56t62 153t-62 154t-176 57 h-348v-420h348z" />
<glyph unicode="C" horiz-adv-x="1468" d="M799 1374q187 0 339 -83.5t240 -227.5l-164 -121q-152 234 -413 234q-210 0 -349 -142t-139 -358t139 -358t349 -142q261 0 413 234l164 -121q-86 -144 -239 -228t-340 -84q-195 0 -358 91t-258 252t-95 356q0 194 95 354.5t258 252t358 91.5z" />
<glyph unicode="D" horiz-adv-x="1417" d="M594 1352q220 0 387.5 -85t257.5 -238t90 -351q0 -146 -52.5 -271.5t-147 -215t-232.5 -140.5t-303 -51h-424v1352h424zM592 1155h-205v-960h205q235 0 374.5 134.5t139.5 348.5q0 218 -138.5 347.5t-375.5 129.5z" />
<glyph unicode="E" horiz-adv-x="1165" d="M1059 1352v-195h-672v-346h506v-188h-506v-428h696v-195h-913v1352h889z" />
<glyph unicode="F" horiz-adv-x="1083" d="M1038 1352v-195h-651v-403h537v-197h-537v-557h-217v1352h868z" />
<glyph unicode="G" horiz-adv-x="1527" d="M801 1374q176 0 319 -73.5t240 -208.5l-158 -129q-151 213 -403 213q-215 0 -350.5 -141t-135.5 -357q0 -220 139 -363t359 -143q133 0 236 55t167 150v145h-415v193h633v-381q-90 -162 -258 -259.5t-373 -97.5q-148 0 -280 54t-227 147t-150.5 222.5t-55.5 275.5 q0 194 94.5 354.5t258 252t360.5 91.5z" />
<glyph unicode="H" horiz-adv-x="1456" d="M1284 1352v-1352h-217v618h-680v-618h-217v1352h217v-539h680v539h217z" />
<glyph unicode="I" horiz-adv-x="557" d="M387 1352v-1352h-217v1352h217z" />
<glyph unicode="J" horiz-adv-x="780" d="M610 1352v-1016q0 -181 -101 -270t-280 -89q-84 0 -186 23v186q92 -10 139 -10q107 0 159 40.5t52 141.5v994h217z" />
<glyph unicode="K" horiz-adv-x="1333" d="M170 0v1352h217v-1352h-217zM666 719l622 -719h-268l-627 719l568 633h266z" />
<glyph unicode="L" horiz-adv-x="1054" d="M387 1352v-1157h619v-195h-836v1352h217z" />
<glyph unicode="M" horiz-adv-x="1624" d="M1380 1374h74v-1374h-217v848l-387 -508h-74l-389 508v-848h-217v1374h76l567 -756z" />
<glyph unicode="N" horiz-adv-x="1456" d="M1067 1352h217v-1375h-74l-823 936v-913h-217v1374h76l821 -934v912z" />
<glyph unicode="O" horiz-adv-x="1597" d="M797 1374q193 0 356 -91.5t258.5 -252t95.5 -354.5q0 -146 -56.5 -276t-151.5 -222.5t-226 -146.5t-276 -54q-195 0 -357.5 91.5t-257 252.5t-94.5 355t95 354.5t257.5 252t356.5 91.5zM799 1176q-211 0 -348.5 -141.5t-137.5 -356.5q0 -218 137.5 -360t348.5 -142 q208 0 346.5 142.5t138.5 359.5q0 213 -139 355.5t-346 142.5z" />
<glyph unicode="P" horiz-adv-x="1193" d="M664 1352q205 0 331.5 -114.5t126.5 -299.5q0 -184 -126.5 -300t-331.5 -116h-277v-522h-217v1352h494zM659 1159h-272v-444h272q114 0 177 61t63 160q0 101 -63 162t-177 61z" />
<glyph unicode="Q" horiz-adv-x="1597" d="M1954 -248q52 0 192 8v-172q-121 -22 -227 -22q-270 0 -494 114.5t-381 337.5q-118 -41 -247 -41q-195 0 -357.5 91.5t-257 252.5t-94.5 355t95 354.5t257.5 252t356.5 91.5q193 0 356 -91.5t258.5 -252t95.5 -354.5q0 -174 -75.5 -319.5t-208.5 -241.5 q140 -184 317.5 -273.5t413.5 -89.5zM313 678q0 -218 137.5 -360t348.5 -142q208 0 346.5 142t138.5 358t-138.5 358t-348.5 142q-209 0 -346.5 -141.5t-137.5 -356.5z" />
<glyph unicode="R" horiz-adv-x="1292" d="M1268 0h-248l-385 522h-248v-522h-217v1352h494q205 0 331.5 -114.5t126.5 -299.5q0 -133 -69 -233.5t-191 -147.5zM387 1159v-444h272q113 0 176.5 61t63.5 160q0 100 -63.5 161.5t-176.5 61.5h-272z" />
<glyph unicode="S" horiz-adv-x="1144" d="M578 1374q144 0 258 -66t178 -175l-152 -117q-110 164 -284 164q-87 0 -146 -42.5t-59 -121.5q0 -37 12 -64.5t42 -51.5t56 -38t78 -39l152 -69q164 -75 243.5 -163.5t79.5 -221.5q0 -177 -127.5 -284.5t-324.5 -107.5q-166 0 -299 78.5t-211 214.5l153 117 q148 -215 355 -215q105 0 169 50.5t64 137.5q0 38 -13 67.5t-43.5 54t-60 40.5t-82.5 41l-149 70q-71 33 -123.5 66.5t-98 78.5t-69.5 103t-24 127q0 163 123 264.5t303 101.5z" />
<glyph unicode="T" horiz-adv-x="1193" d="M1161 1352v-195h-456v-1157h-218v1157h-454v195h1128z" />
<glyph unicode="U" horiz-adv-x="1421" d="M1266 1352v-805q0 -176 -73 -306.5t-197.5 -197t-282.5 -66.5q-162 0 -287 66.5t-197.5 197t-72.5 306.5v805h217v-820q0 -172 95 -264t245 -92q148 0 242 92t94 264v820h217z" />
<glyph unicode="V" horiz-adv-x="1355" d="M1067 1352h244l-596 -1375h-74l-596 1375h244l389 -940z" />
<glyph unicode="W" horiz-adv-x="2152" d="M1841 1352h238l-527 -1375h-71l-404 959l-403 -959h-74l-526 1375h239l336 -914l389 936h76l389 -936z" />
<glyph unicode="X" horiz-adv-x="1243" d="M1196 0h-248l-327 504l-326 -504h-250l457 690l-428 662h250l299 -480l295 480h247l-420 -664z" />
<glyph unicode="Y" horiz-adv-x="1269" d="M1210 1352l-467 -805v-547h-217v545l-467 807h242l334 -588l336 588h239z" />
<glyph unicode="Z" horiz-adv-x="1204" d="M389 195h754v-195h-1090v59l748 1098h-660v195h1000v-60z" />
<glyph unicode="[" horiz-adv-x="716" d="M625 1493v-180h-236v-1397h236v-184h-428v1761h428z" />
<glyph unicode="\" horiz-adv-x="1331" d="M10 1597h240l1071 -1845h-240z" />
<glyph unicode="]" horiz-adv-x="716" d="M520 1493v-1761h-430v184h238v1397h-238v180h430z" />
<glyph unicode="^" horiz-adv-x="1073" d="M961 573h-213l-211 443l-211 -443h-213l387 799h73z" />
<glyph unicode="_" horiz-adv-x="1032" d="M952 -143v-174h-872v174h872z" />
<glyph unicode="`" horiz-adv-x="544" d="M322 1597l161 -434h-159l-263 396v38h261z" />
<glyph unicode="a" horiz-adv-x="1097" d="M543 1028q187 0 299 -108t112 -312v-608h-200v113q-114 -136 -322 -136q-158 0 -254 80t-96 211q0 132 101 209.5t270 77.5h284v66q0 104 -56 159.5t-159 55.5q-84 0 -149 -37.5t-129 -112.5l-125 127q152 215 424 215zM477 143q107 0 183.5 68.5t76.5 169.5v18h-258 q-178 0 -178 -123q0 -64 49.5 -98.5t126.5 -34.5z" />
<glyph unicode="b" horiz-adv-x="1292" d="M707 1028q214 0 353.5 -150t139.5 -376q0 -225 -139 -375t-352 -150q-111 0 -204.5 43t-148.5 121v-141h-200v1536h215v-653q57 69 144.5 107t191.5 38zM672 174q132 0 219.5 92.5t87.5 237.5q0 144 -88 235.5t-219 91.5q-59 0 -112 -20t-96.5 -59t-69 -103.5 t-25.5 -146.5q0 -83 26 -147.5t69.5 -103t96.5 -58t111 -19.5z" />
<glyph unicode="c" horiz-adv-x="1130" d="M625 1028q139 0 248.5 -62t175.5 -171l-152 -119q-110 153 -270 153q-137 0 -226.5 -93.5t-89.5 -231.5q0 -140 89.5 -234t226.5 -94q158 0 270 152l152 -117q-68 -109 -177.5 -171.5t-246.5 -62.5q-146 0 -268.5 69.5t-193.5 190.5t-71 267q0 145 71 265.5t193.5 189.5 t268.5 69z" />
<glyph unicode="d" horiz-adv-x="1292" d="M920 1536h217v-1536h-201v143q-56 -78 -148 -122t-204 -44q-214 0 -353 149.5t-139 375.5q0 225 139.5 375.5t352.5 150.5q104 0 191.5 -38t144.5 -107v653zM621 174q58 0 111 19.5t96.5 58t69.5 103t26 147.5q0 82 -26 146.5t-69.5 103.5t-96.5 59t-111 20 q-132 0 -221 -91.5t-89 -235.5q0 -145 88.5 -237.5t221.5 -92.5z" />
<glyph unicode="e" d="M1077 567q0 -63 -16 -135h-750q22 -124 109.5 -194t218.5 -70q158 0 293 119l102 -148q-172 -162 -401 -162q-232 0 -386.5 150.5t-154.5 374.5q0 145 68.5 266t188 190.5t263.5 69.5q201 0 333 -131.5t132 -329.5zM604 846q-107 0 -185.5 -67t-103.5 -179h547 q-1 113 -75.5 179.5t-182.5 66.5z" />
<glyph unicode="f" horiz-adv-x="659" d="M604 1364q-98 0 -147 -39.5t-49 -134.5v-184h237v-187h-237v-819h-215v819h-144v187h144v202q0 177 95.5 264t262.5 87q77 0 139 -19v-182q-50 6 -86 6z" />
<glyph unicode="g" horiz-adv-x="1298" d="M944 1006h199v-902q0 -238 -137 -366.5t-367 -128.5q-282 0 -483 190l118 150q84 -69 167.5 -106.5t185.5 -37.5q138 0 219.5 73t81.5 214v70q-58 -67 -147.5 -104.5t-192.5 -37.5q-212 0 -351 141.5t-139 362.5t139.5 362.5t350.5 141.5q113 0 206 -43.5t150 -122.5v144 zM627 209q81 0 147.5 32.5t111 106t44.5 178.5q0 64 -17 116.5t-46 87.5t-68 59.5t-82 35.5t-90 11q-131 0 -219.5 -86.5t-88.5 -225.5q0 -140 88.5 -227.5t219.5 -87.5z" />
<glyph unicode="h" horiz-adv-x="1177" d="M662 1028q171 0 271.5 -110t100.5 -289v-629h-215v598q0 105 -60 169t-159 64q-100 0 -164.5 -65.5t-64.5 -167.5v-598h-215v1536h215v-629q108 121 291 121z" />
<glyph unicode="i" horiz-adv-x="526" d="M264 1524q60 0 104 -42t44 -102q0 -59 -43.5 -100t-104.5 -41q-62 0 -104.5 40.5t-42.5 100.5t43 102t104 42zM371 1006v-1006h-215v1006h215z" />
<glyph unicode="j" horiz-adv-x="526" d="M264 1524q60 0 104 -42t44 -102q0 -59 -43.5 -100t-104.5 -41q-62 0 -104.5 40.5t-42.5 100.5t43 102t104 42zM371 1006v-1047q0 -176 -95.5 -263t-261.5 -87q-84 0 -139 18v183q58 -7 88 -7q96 0 144.5 40t48.5 134v1029h215z" />
<glyph unicode="k" horiz-adv-x="1091" d="M156 0v1536h215v-1536h-215zM631 563l440 -563h-258l-436 565l393 441h266z" />
<glyph unicode="l" horiz-adv-x="526" d="M371 1536v-1536h-215v1536h215z" />
<glyph unicode="m" horiz-adv-x="1808" d="M1292 1028q175 0 274 -109.5t99 -289.5v-629h-217v598q0 106 -56 169.5t-153 63.5t-159 -63.5t-62 -159.5v-608h-215v598q0 105 -57.5 169t-153.5 64q-98 0 -159.5 -64.5t-61.5 -168.5v-598h-215v1006h200v-97q109 119 291 119q210 0 305 -158q57 72 144.5 115t195.5 43z " />
<glyph unicode="n" horiz-adv-x="1177" d="M657 1028q176 0 276.5 -109.5t100.5 -289.5v-629h-215v600q0 104 -60 169t-159 65q-100 0 -164.5 -65.5t-64.5 -168.5v-600h-215v1006h200v-101q113 123 301 123z" />
<glyph unicode="o" horiz-adv-x="1247" d="M623 1028q146 0 268.5 -69t194 -189.5t71.5 -265.5t-71.5 -266.5t-194.5 -191t-268 -69.5q-146 1 -267.5 70t-192.5 190t-71 267q0 145 70.5 265.5t192.5 189.5t268 69zM625 831q-136 -1 -225 -95t-89 -234t88.5 -233t223.5 -93q133 0 223 94t90 232q0 140 -89 233.5 t-222 95.5z" />
<glyph unicode="p" horiz-adv-x="1292" d="M707 1028q214 0 353.5 -149.5t139.5 -374.5q0 -227 -139.5 -377t-353.5 -150q-102 0 -190 37.5t-146 106.5v-490h-215v1375h200v-144q56 78 148.5 122t202.5 44zM672 174q131 0 219 92t88 236q0 145 -87.5 237t-219.5 92q-58 0 -111 -19.5t-96.5 -57.5t-69.5 -102.5 t-26 -147.5q0 -82 25.5 -147t69 -104t96.5 -59t112 -20z" />
<glyph unicode="q" horiz-adv-x="1292" d="M936 1006h201v-1375h-217v490q-57 -69 -145 -106.5t-191 -37.5q-213 0 -352.5 150t-139.5 377q0 225 139 374.5t353 149.5q112 0 204 -44t148 -122v144zM621 174q58 0 111 20t96.5 59t69.5 104t26 147q0 83 -26 147.5t-69.5 102.5t-96.5 57.5t-111 19.5 q-133 0 -221.5 -92.5t-88.5 -236.5t89 -236t221 -92z" />
<glyph unicode="r" horiz-adv-x="768" d="M649 1016q44 0 82 -10v-191h-65q-127 0 -211 -72.5t-84 -205.5v-537h-215v1006h200v-132q52 68 129 105t164 37z" />
<glyph unicode="s" horiz-adv-x="931" d="M477 1028q217 0 348 -156l-116 -133q-98 103 -236 103q-63 0 -100 -24.5t-37 -72.5q0 -39 29.5 -63.5t103.5 -54.5l96 -39q143 -60 209 -128.5t66 -174.5q0 -146 -107 -227t-266 -81q-128 0 -233 53t-173 142l123 135q136 -143 283 -143q70 0 116 29t46 83q0 45 -33.5 70 t-108.5 55l-102 43q-133 56 -197.5 121t-64.5 172q0 136 100 213.5t254 77.5z" />
<glyph unicode="t" horiz-adv-x="815" d="M621 172q45 0 133 10v-182q-105 -23 -179 -23q-174 0 -272 87t-98 264v491h-164v187h164v264h217v-264h299v-187h-299v-473q0 -95 50 -134.5t149 -39.5z" />
<glyph unicode="u" d="M1022 1006v-584q0 -200 -124 -322.5t-312 -122.5q-191 0 -316 122t-125 323v584h213v-600q0 -104 65 -167t163 -63q94 0 157.5 63t63.5 167v600h215z" />
<glyph unicode="v" horiz-adv-x="1124" d="M856 1006h229l-485 -1029h-74l-487 1029h229l293 -666z" />
<glyph unicode="w" horiz-adv-x="1748" d="M1481 1006h229l-446 -1029h-74l-316 670l-315 -670h-74l-446 1029h229l264 -658l306 680h73l310 -672z" />
<glyph unicode="x" horiz-adv-x="1052" d="M1022 0h-246l-250 365l-252 -365h-245l374 522l-348 484h246l225 -328l224 328h245l-350 -484z" />
<glyph unicode="y" horiz-adv-x="1124" d="M856 1006h229l-489 -1121q-63 -144 -152 -210t-217 -66q-84 0 -166 20v183q106 -9 119 -9q76 0 129 31.5t90 116.5l41 94l-401 961h231l289 -734z" />
<glyph unicode="z" horiz-adv-x="944" d="M367 186h532v-186h-854v59l526 760h-479v187h803v-62z" />
<glyph unicode="{" horiz-adv-x="827" d="M629 1313q-146 0 -146 -152q0 -49 24.5 -185t24.5 -188q0 -72 -31.5 -113t-97.5 -63q67 -22 98 -62.5t31 -111.5q0 -53 -24.5 -188t-24.5 -184q0 -154 146 -154h108v-180h-147q-299 0 -299 280q0 71 24.5 215t24.5 181q0 59 -29.5 85.5t-87.5 26.5h-123v187h123 q117 0 117 110q0 39 -24.5 182.5t-24.5 214.5q0 279 299 279h147v-180h-108z" />
<glyph unicode="|" horiz-adv-x="679" d="M430 1597v-1845h-180v1845h180z" />
<glyph unicode="}" horiz-adv-x="827" d="M606 707h121v-187h-121q-60 0 -89.5 -26.5t-29.5 -85.5q0 -37 25 -181t25 -215q0 -280 -299 -280h-148v180h111q143 0 143 154q0 49 -24.5 184t-24.5 188q0 70 31.5 111t97.5 63q-66 22 -97.5 63t-31.5 113q0 52 24.5 188t24.5 185q0 152 -143 152h-111v180h148 q299 0 299 -279q0 -71 -25 -214.5t-25 -182.5q0 -57 29.5 -83.5t89.5 -26.5z" />
<glyph unicode="~" horiz-adv-x="1146" d="M322 854q80 0 172 -53l186 -115q77 -42 103 -47q10 -2 18 -2q34 0 52.5 24.5t18.5 61.5v35h170q5 -30 5 -62q0 -109 -63 -181.5t-161 -72.5q-82 0 -170 54l-186 112q-81 51 -121 51q-34 0 -54 -24t-20 -62v-34h-168q-4 24 -4 61q0 108 63 181t159 73z" />
<glyph unicode="&#xa1;" horiz-adv-x="667" d="M334 1028q66 0 112 -46t46 -114q0 -67 -46 -112t-112 -45q-68 0 -114 45t-46 112q0 69 46 114.5t114 45.5zM422 543l41 -912h-260l41 912h178z" />
<glyph unicode="&#xa2;" horiz-adv-x="1136" d="M672 348q119 25 205 148l149 -119q-59 -95 -149.5 -155t-204.5 -75v-342h-201v355q-175 42 -287 183t-112 327q0 185 112 326t287 184v354h201v-344q116 -13 206.5 -72.5t149.5 -154.5l-149 -119q-88 123 -207 145v-641zM291 670q0 -100 48.5 -180t131.5 -119v596 q-82 -37 -131 -116.5t-49 -180.5z" />
<glyph unicode="&#xa3;" horiz-adv-x="1122" d="M590 440q0 -148 -92 -254h534v-186h-932v49q132 90 202.5 182.5t70.5 206.5q0 7 -1 21.5t-1 21.5h-250v187h182q-3 5 -25 47t-28 54t-22 49t-21 59t-11 55.5t-6 66.5q0 168 118 271.5t300 103.5q164 0 280.5 -90t162.5 -262l-187 -68q-69 222 -243 222q-98 0 -153.5 -60 t-55.5 -151q0 -39 12.5 -82t24 -68t40 -77t37.5 -70h328v-187h-266q0 -6 1 -20t1 -21z" />
<glyph unicode="&#xa4;" horiz-adv-x="1329" d="M1151 676q0 -148 -88 -273l221 -223l-129 -129l-227 230q-123 -76 -266 -76q-145 3 -265 74l-221 -228l-131 129l217 223q-88 122 -88 273q0 148 88 270l-217 221l131 129l221 -225q123 76 265 76t268 -76l223 225l131 -129l-221 -221q88 -122 88 -270zM662 403 q115 0 191.5 77.5t76.5 193.5q0 120 -76 197t-192 77q-117 0 -192 -77.5t-75 -196.5q0 -116 75.5 -193.5t191.5 -77.5z" />
<glyph unicode="&#xa5;" horiz-adv-x="1177" d="M1165 1352l-417 -598h335v-183h-385v-157h385v-181h-385v-233h-217v233h-383v181h383v157h-383v183h334l-418 598h242l334 -484l334 484h241z" />
<glyph unicode="&#xa6;" horiz-adv-x="679" d="M430 1597v-614h-180v614h180zM430 367v-615h-180v615h180z" />
<glyph unicode="&#xa7;" horiz-adv-x="1208" d="M1143 367q0 -106 -66 -178t-180 -99q0 -6 1 -18.5t1 -18.5q0 -135 -97 -223t-259 -88q-239 0 -377 199l145 118q107 -129 236 -129q67 0 104 30.5t37 88.5q0 26 -10 51t-20.5 41.5t-40.5 43t-45.5 38.5t-59.5 45l-203 156q-127 91 -185 167t-58 171q0 104 66.5 176.5 t178.5 99.5q0 6 -1 18.5t-1 18.5q0 135 98 223t261 88q237 0 374 -198l-145 -121q-54 66 -110 97.5t-125 31.5q-67 0 -104.5 -29.5t-37.5 -87.5q0 -31 9.5 -56.5t37.5 -55t46.5 -45t68.5 -53.5q9 -7 14 -11l203 -153q127 -90 185.5 -166.5t58.5 -171.5zM836 240 q98 40 98 125q0 43 -32 79.5t-126 106.5l-209 160q-134 95 -194 176q-97 -39 -97 -123q0 -43 31.5 -80.5t124.5 -108.5l203 -153q148 -107 201 -182z" />
<glyph unicode="&#xa8;" horiz-adv-x="860" d="M201 1516q57 0 97 -39t40 -97q0 -54 -40 -93.5t-97 -39.5q-55 0 -97.5 40t-42.5 93q0 57 42.5 96.5t97.5 39.5zM659 1516q59 0 99.5 -39t40.5 -97q0 -54 -41 -93.5t-99 -39.5q-53 0 -95 40t-42 93q0 57 41.5 96.5t95.5 39.5z" />
<glyph unicode="&#xa9;" horiz-adv-x="1597" d="M797 1374q142 0 273 -54t227 -146.5t153 -222.5t57 -275q0 -194 -97 -355.5t-259.5 -252.5t-353.5 -91q-142 0 -272.5 54t-226.5 146t-153 222.5t-57 276.5t57 276t153.5 222t226.5 146t272 54zM797 1237q-112 0 -213.5 -41t-177.5 -113t-121 -178t-45 -229 q0 -124 45 -230t121 -178t177.5 -112.5t213.5 -40.5q111 0 213 40.5t179 112.5t123 178.5t46 229.5t-45.5 229t-122.5 178t-179 113t-214 41zM815 1063q190 0 311 -160l-122 -106q-75 102 -185 102q-93 0 -153 -63t-60 -160q0 -94 59.5 -157.5t151.5 -63.5q113 0 187 100 l122 -106q-122 -158 -313 -158q-163 0 -275 110.5t-112 274.5q0 165 112 276t277 111z" />
<glyph unicode="&#xaa;" horiz-adv-x="751" d="M371 1153q127 0 200.5 -70.5t73.5 -201.5v-381h-160v55q-70 -70 -190 -70q-102 0 -160.5 54t-58.5 139q0 88 64.5 137t174.5 49h156v29q0 111 -121 111q-80 0 -170 -74l-78 112q117 111 269 111zM344 614q55 0 91 33t36 86v21h-127q-43 0 -67.5 -19.5t-24.5 -50.5 q0 -34 26 -52t66 -18z" />
<glyph unicode="&#xab;" horiz-adv-x="1126" d="M451 993l139 -123l-283 -313l283 -317l-139 -121l-381 407v60zM915 993l140 -123l-283 -313l283 -317l-140 -121l-380 407v60z" />
<glyph unicode="&#xac;" horiz-adv-x="1146" d="M979 743v-540h-207v354h-672v186h879z" />
<glyph unicode="&#xad;" horiz-adv-x="704" d="M604 741v-182h-504v182h504z" />
<glyph unicode="&#xae;" horiz-adv-x="1171" d="M588 1409q137 0 253.5 -69.5t184.5 -189t68 -259.5q0 -139 -68 -258t-184.5 -188.5t-253.5 -69.5q-138 0 -255.5 69.5t-186 188.5t-68.5 258q0 140 68.5 259.5t186 189t255.5 69.5zM588 492q162 0 274.5 115t112.5 286q0 169 -112.5 284t-274.5 115q-164 0 -275.5 -115 t-111.5 -284q0 -170 111.5 -285.5t275.5 -115.5zM793 973q0 -94 -82 -146l139 -192h-145l-125 162h-64v-162h-131v514h211q85 0 141 -48t56 -128zM516 1034v-123h78q28 0 45.5 17t17.5 43q0 28 -17.5 45.5t-45.5 17.5h-78z" />
<glyph unicode="&#xaf;" horiz-adv-x="712" d="M651 1466v-172h-590v172h590z" />
<glyph unicode="&#xb0;" horiz-adv-x="739" d="M369 1374q130 0 221.5 -89.5t91.5 -217.5t-91.5 -217.5t-221.5 -89.5t-221 89.5t-91 217.5t91 217.5t221 89.5zM369 1225q-64 0 -109 -46t-45 -112t45 -112t109 -46q68 0 111.5 45.5t43.5 112.5t-43.5 112.5t-111.5 45.5z" />
<glyph unicode="&#xb1;" horiz-adv-x="1146" d="M680 1118v-297h344v-180h-344v-309h-211v309h-344v180h344v297h211zM1024 180v-180h-899v180h899z" />
<glyph unicode="&#xb2;" horiz-adv-x="770" d="M377 899h313v-154h-620v37l303 328q63 69 91 118t28 99q0 56 -33 92.5t-86 36.5q-55 0 -89 -36.5t-34 -96.5q0 -13 4 -63h-168q-8 33 -8 73q0 110 82 194.5t213 84.5q126 0 209.5 -77t83.5 -194q0 -46 -13 -88t-42.5 -86t-55.5 -75t-72 -82z" />
<glyph unicode="&#xb3;" horiz-adv-x="731" d="M451 1284q84 -21 144 -88t60 -172q0 -129 -92 -211t-225 -82q-104 0 -184 52.5t-123 138.5l119 84q72 -119 182 -119q66 0 107.5 37t41.5 100q0 61 -44.5 93t-131.5 32h-92v43l180 252h-299v153h545v-47z" />
<glyph unicode="&#xb4;" horiz-adv-x="544" d="M483 1597v-38l-262 -396h-160l162 434h260z" />
<glyph unicode="&#xb5;" horiz-adv-x="1230" d="M1137 176q6 0 13.5 0.5t20 1.5t23.5 2v-180q-59 -16 -127 -16q-150 0 -205 112q-92 -119 -252 -119q-148 0 -239 105v-451h-215v1375h215v-590q0 -107 63.5 -174.5t159.5 -67.5q98 0 161.5 67t63.5 175v590h215v-691q0 -73 25 -106t78 -33z" />
<glyph unicode="&#xb6;" horiz-adv-x="1204" d="M692 1352v-887h-123q-140 0 -252.5 54t-177.5 156.5t-65 235.5q0 199 139.5 320t355.5 121h123zM1034 1352v-1381q0 -186 -97.5 -274t-274.5 -88q-80 0 -177 22v185q15 -1 62.5 -6t70.5 -5q100 0 150.5 42.5t50.5 144.5v1360h215z" />
<glyph unicode="&#xb7;" horiz-adv-x="552" d="M279 807q67 0 112 -45t45 -113q0 -69 -45.5 -114.5t-111.5 -45.5q-68 0 -115 46t-47 114t47 113t115 45z" />
<glyph unicode="&#xb8;" horiz-adv-x="561" d="M365 72q63 -33 99 -89t36 -128q0 -105 -79 -175.5t-214 -70.5q-69 0 -146 18v148q77 -6 119 -6q66 0 105 31.5t39 93.5q0 68 -48 135z" />
<glyph unicode="&#xb9;" horiz-adv-x="739" d="M475 1597v-698h180v-154h-563v154h213v545h-201v153h371z" />
<glyph unicode="&#xba;" horiz-adv-x="827" d="M414 1151q141 0 241.5 -96.5t100.5 -237.5q0 -140 -100.5 -236t-241.5 -96q-143 0 -242.5 96t-99.5 236q0 142 99.5 238t242.5 96zM414 995q-75 0 -122.5 -49.5t-47.5 -128.5q0 -77 47.5 -126.5t122.5 -49.5t121.5 49.5t46.5 126.5q0 78 -46.5 128t-121.5 50z" />
<glyph unicode="&#xbb;" horiz-adv-x="1126" d="M211 993l381 -407v-60l-381 -407l-139 121l282 317l-282 313zM676 993l381 -407v-60l-381 -407l-139 121l282 317l-282 313z" />
<glyph unicode="&#xbc;" horiz-adv-x="1865" d="M655 653v-153h-563v153h213v545h-201v154h371v-699h180zM1286 1352h182l-776 -1352h-180zM1837 281v-140h-108v-141h-156v141h-428v45l260 666h174l-225 -571h219v245h156v-245h108z" />
<glyph unicode="&#xbd;" horiz-adv-x="1939" d="M655 653v-153h-563v153h213v545h-201v154h371v-699h180zM1286 1352h182l-776 -1352h-180zM1544 154h314v-154h-621v37l303 328q63 69 91 118t28 99q0 56 -33 92.5t-86 36.5q-55 0 -89 -36.5t-34 -96.5q0 -14 4 -64h-168q-8 33 -8 74q0 110 82 194t213 84 q126 0 209.5 -76.5t83.5 -193.5q0 -46 -13 -88.5t-42 -86t-55.5 -75.5t-71.5 -82z" />
<glyph unicode="&#xbe;" horiz-adv-x="1785" d="M655 778q0 -129 -92 -211t-225 -82q-104 0 -184 52.5t-123 138.5l119 84q72 -119 182 -119q66 0 107.5 37t41.5 100q0 61 -44.5 93t-131.5 32h-92v43l180 252h-299v154h545v-47l-188 -267q84 -23 144 -89.5t60 -170.5zM1206 1352h183l-777 -1352h-180zM1757 281v-140 h-108v-141h-156v141h-428v45l260 666h174l-225 -571h219v245h156v-245h108z" />
<glyph unicode="&#xbf;" horiz-adv-x="915" d="M481 1028q68 0 114 -45.5t46 -114.5q0 -67 -46 -113t-114 -46q-66 0 -112.5 46t-46.5 113q0 68 46 114t113 46zM586 543q20 -50 20 -92q0 -30 -11.5 -61t-23 -51t-41 -52t-41 -42.5t-47.5 -43.5q-77 -72 -109 -118t-32 -106q0 -75 49.5 -122.5t118.5 -47.5q137 0 199 177 l178 -78q-41 -144 -142 -220.5t-241 -76.5q-161 0 -272 100t-111 256q0 70 26.5 131t62 101.5t93.5 91.5q81 72 112.5 112.5t31.5 87.5q0 29 -7 54h187z" />
<glyph unicode="&#xc0;" horiz-adv-x="1355" d="M760 1483h-160l-264 342v39h262zM1077 0l-96 225h-608l-97 -225h-231l596 1374h74l596 -1374h-234zM901 412l-223 561l-225 -561h448z" />
<glyph unicode="&#xc1;" horiz-adv-x="1355" d="M1018 1825l-262 -342h-160l162 381h260v-39zM1077 0l-96 225h-608l-97 -225h-231l596 1374h74l596 -1374h-234zM901 412l-223 561l-225 -561h448z" />
<glyph unicode="&#xc2;" horiz-adv-x="1355" d="M680 1675l-207 -192h-166l303 381h138l303 -381h-166zM1077 0l-96 225h-608l-97 -225h-231l596 1374h74l596 -1374h-234zM901 412l-223 561l-225 -561h448z" />
<glyph unicode="&#xc3;" horiz-adv-x="1355" d="M483 1524h-172q-4 36 -4 59q0 105 58.5 172.5t148.5 67.5q75 0 148 -45l67 -41q6 -3 22.5 -12.5t23.5 -13t19.5 -7.5t24.5 -4q28 0 43 20t15 52v30h172q2 -18 2 -59q0 -106 -57.5 -173t-145.5 -67q-71 0 -154 47l-63 37q-6 3 -18.5 10.5t-19 10.5t-16.5 7.5t-18.5 6.5 t-17.5 2q-28 0 -43 -21t-15 -53v-26zM1077 0l-96 225h-608l-97 -225h-231l596 1374h74l596 -1374h-234zM901 412l-223 561l-225 -561h448z" />
<glyph unicode="&#xc4;" horiz-adv-x="1355" d="M428 1530q-55 0 -97 40t-42 93q0 56 42 94.5t97 38.5q57 0 97 -38t40 -95q0 -54 -40 -93.5t-97 -39.5zM928 1528q-53 0 -95 40t-42 93q0 56 41.5 95.5t95.5 39.5q59 0 99 -39t40 -96q0 -54 -40.5 -93.5t-98.5 -39.5zM1077 0l-96 225h-608l-97 -225h-231l596 1374h74 l596 -1374h-234zM901 412l-223 561l-225 -561h448z" />
<glyph unicode="&#xc5;" horiz-adv-x="1355" d="M676 1407q-104 0 -173 67.5t-69 167.5q0 99 69.5 167.5t172.5 68.5q105 0 174.5 -68.5t69.5 -167.5q0 -100 -69.5 -167.5t-174.5 -67.5zM678 1737q-41 0 -67.5 -27.5t-26.5 -67.5q0 -41 27 -67.5t67 -26.5q39 0 65.5 26.5t26.5 67.5q0 40 -26.5 67.5t-65.5 27.5zM1077 0 l-96 225h-608l-97 -225h-231l596 1374h74l596 -1374h-234zM901 412l-223 561l-225 -561h448z" />
<glyph unicode="&#xc6;" horiz-adv-x="1712" d="M1128 195h502v-195h-684l-39 225h-536l-119 -225h-234l701 1352h217h670v-195h-637l57 -346h416v-188h-383zM776 1032l-309 -620h407z" />
<glyph unicode="&#xc7;" horiz-adv-x="1468" d="M801 176q261 0 413 234l164 -121q-70 -117 -184.5 -195t-259.5 -104q41 -59 41 -135q0 -105 -79 -175.5t-214 -70.5q-68 0 -145 18v148q76 -6 118 -6q66 0 105 31.5t39 93.5q0 43 -19 83q-191 4 -349.5 96t-250.5 251.5t-92 351.5q0 194 95 354.5t258 252t358 91.5 q187 0 339 -83.5t240 -227.5l-164 -121q-152 234 -413 234q-210 0 -349 -142t-139 -358t139 -358t349 -142z" />
<glyph unicode="&#xc8;" horiz-adv-x="1165" d="M532 1864l162 -381h-159l-265 342v39h262zM1059 1352v-195h-672v-346h506v-188h-506v-428h696v-195h-913v1352h889z" />
<glyph unicode="&#xc9;" horiz-adv-x="1165" d="M950 1864v-39l-262 -342h-160l162 381h260zM1059 1352v-195h-672v-346h506v-188h-506v-428h696v-195h-913v1352h889z" />
<glyph unicode="&#xca;" horiz-adv-x="1165" d="M612 1675l-206 -192h-166l303 381h137l303 -381h-166zM387 195h696v-195h-913v1352h889v-195h-672v-346h506v-188h-506v-428z" />
<glyph unicode="&#xcb;" horiz-adv-x="1165" d="M362 1796q58 0 98 -38t40 -95q0 -54 -40.5 -93.5t-97.5 -39.5q-55 0 -97 40t-42 93q0 56 42 94.5t97 38.5zM862 1796q59 0 99 -39t40 -96q0 -54 -40.5 -93.5t-98.5 -39.5q-53 0 -95 40t-42 93q0 56 41.5 95.5t95.5 39.5zM1059 1352v-195h-672v-346h506v-188h-506v-428 h696v-195h-913v1352h889z" />
<glyph unicode="&#xcc;" horiz-adv-x="557" d="M201 1864l161 -381h-159l-264 342v39h262zM387 1352v-1352h-217v1352h217z" />
<glyph unicode="&#xcd;" horiz-adv-x="557" d="M618 1864v-39l-262 -342h-159l161 381h260zM387 1352v-1352h-217v1352h217z" />
<glyph unicode="&#xce;" horiz-adv-x="557" d="M348 1864l303 -381h-166l-204 192l-207 -192h-166l303 381h137zM170 0v1352h217v-1352h-217z" />
<glyph unicode="&#xcf;" horiz-adv-x="557" d="M29 1796q57 0 97 -38t40 -95q0 -54 -40 -93.5t-97 -39.5q-55 0 -97.5 40t-42.5 93q0 56 42.5 94.5t97.5 38.5zM528 1796q59 0 99.5 -39t40.5 -96q0 -54 -41 -93.5t-99 -39.5q-53 0 -95 40t-42 93q0 56 41.5 95.5t95.5 39.5zM387 1352v-1352h-217v1352h217z" />
<glyph unicode="&#xd0;" horiz-adv-x="1417" d="M594 1352q220 0 387.5 -85t257.5 -238t90 -351q0 -146 -52.5 -271.5t-147 -215t-232.5 -140.5t-303 -51h-424v543h-182v184h182v625h424zM592 195q235 0 374.5 134.5t139.5 348.5q0 218 -138.5 347.5t-375.5 129.5h-205v-428h246v-184h-246v-348h205z" />
<glyph unicode="&#xd1;" horiz-adv-x="1456" d="M532 1524h-172q-4 36 -4 59q0 105 58.5 172.5t148.5 67.5q75 0 148 -45l67 -41q6 -3 22.5 -12.5t23.5 -13t19.5 -7.5t24.5 -4q28 0 43 20t15 52v30h172q2 -18 2 -59q0 -106 -57.5 -173t-145.5 -67q-71 0 -154 47l-63 37q-6 3 -18.5 10.5t-19 10.5t-16.5 7.5t-18.5 6.5 t-17.5 2q-28 0 -43 -21t-15 -53v-26zM1067 1352h217v-1375h-74l-823 936v-913h-217v1374h76l821 -934v912z" />
<glyph unicode="&#xd2;" horiz-adv-x="1597" d="M719 1864l162 -381h-160l-264 342v39h262zM797 1374q193 0 356 -91.5t258.5 -252t95.5 -354.5q0 -146 -56.5 -276t-151.5 -222.5t-226 -146.5t-276 -54q-195 0 -357.5 91.5t-257 252.5t-94.5 355t95 354.5t257.5 252t356.5 91.5zM799 1176q-211 0 -348.5 -141.5 t-137.5 -356.5q0 -218 137.5 -360t348.5 -142q208 0 346.5 142.5t138.5 359.5q0 213 -139 355.5t-346 142.5z" />
<glyph unicode="&#xd3;" horiz-adv-x="1597" d="M1137 1864v-39l-263 -342h-159l162 381h260zM797 1374q193 0 356 -91.5t258.5 -252t95.5 -354.5q0 -146 -56.5 -276t-151.5 -222.5t-226 -146.5t-276 -54q-195 0 -357.5 91.5t-257 252.5t-94.5 355t95 354.5t257.5 252t356.5 91.5zM799 1176q-211 0 -348.5 -141.5 t-137.5 -356.5q0 -218 137.5 -360t348.5 -142q208 0 346.5 142.5t138.5 359.5q0 213 -139 355.5t-346 142.5z" />
<glyph unicode="&#xd4;" horiz-adv-x="1597" d="M799 1675l-207 -192h-166l303 381h137l303 -381h-165zM797 1374q193 0 356 -91.5t258.5 -252t95.5 -354.5q0 -146 -56.5 -276t-151.5 -222.5t-226 -146.5t-276 -54q-195 0 -357.5 91.5t-257 252.5t-94.5 355t95 354.5t257.5 252t356.5 91.5zM799 176q208 0 346.5 142.5 t138.5 359.5q0 213 -139 355.5t-346 142.5q-211 0 -348.5 -141.5t-137.5 -356.5q0 -218 137.5 -360t348.5 -142z" />
<glyph unicode="&#xd5;" horiz-adv-x="1597" d="M633 1823q74 0 147 -45l68 -41q6 -3 22.5 -12.5t23.5 -13t19.5 -7.5t24.5 -4q28 0 42.5 20t14.5 52v30h172q2 -18 2 -59q0 -107 -57 -173.5t-145 -66.5q-71 0 -154 47l-63 37q-5 3 -18.5 10.5t-19.5 10.5t-16.5 7.5t-19 6.5t-17.5 2q-28 0 -42.5 -20.5t-14.5 -53.5v-26 h-172q-4 36 -4 59q0 105 58.5 172.5t148.5 67.5zM797 1374q193 0 356 -91.5t258.5 -252t95.5 -354.5q0 -146 -56.5 -276t-151.5 -222.5t-226 -146.5t-276 -54q-195 0 -357.5 91.5t-257 252.5t-94.5 355t95 354.5t257.5 252t356.5 91.5zM799 1176q-211 0 -348.5 -141.5 t-137.5 -356.5q0 -218 137.5 -360t348.5 -142q208 0 346.5 142.5t138.5 359.5q0 213 -139 355.5t-346 142.5z" />
<glyph unicode="&#xd6;" horiz-adv-x="1597" d="M549 1796q57 0 97 -38t40 -95q0 -54 -40 -93.5t-97 -39.5q-55 0 -97 40t-42 93q0 56 42 94.5t97 38.5zM1049 1796q59 0 99 -39t40 -96q0 -54 -40.5 -93.5t-98.5 -39.5q-53 0 -95.5 40t-42.5 93q0 56 42 95.5t96 39.5zM797 1374q193 0 356 -91.5t258.5 -252t95.5 -354.5 q0 -146 -56.5 -276t-151.5 -222.5t-226 -146.5t-276 -54q-195 0 -357.5 91.5t-257 252.5t-94.5 355t95 354.5t257.5 252t356.5 91.5zM799 1176q-211 0 -348.5 -141.5t-137.5 -356.5q0 -218 137.5 -360t348.5 -142q208 0 346.5 142.5t138.5 359.5q0 213 -139 355.5 t-346 142.5z" />
<glyph unicode="&#xd7;" horiz-adv-x="1146" d="M885 1094l129 -129l-312 -312l312 -311l-129 -129l-312 309l-311 -309l-129 129l309 311l-309 312l129 129l311 -310z" />
<glyph unicode="&#xd8;" horiz-adv-x="1597" d="M1522 1270l-162 -164q147 -187 147 -430q0 -146 -56.5 -276t-151.5 -222.5t-226 -146.5t-276 -54q-237 0 -428 138l-162 -164l-131 131l160 162q-148 191 -148 432q0 194 95 354.5t257.5 252t356.5 91.5q239 0 430 -139l164 166zM303 678q0 -162 80 -287l702 705 q-128 88 -286 88q-214 0 -355 -144t-141 -362zM1292 678q0 158 -80 283l-702 -705q128 -88 289 -88q211 0 352 145t141 365z" />
<glyph unicode="&#xd9;" horiz-adv-x="1421" d="M631 1864l162 -381h-160l-264 342v39h262zM1266 1352v-805q0 -176 -73 -306.5t-197.5 -197t-282.5 -66.5q-162 0 -287 66.5t-197.5 197t-72.5 306.5v805h217v-820q0 -172 95 -264t245 -92q148 0 242 92t94 264v820h217z" />
<glyph unicode="&#xda;" horiz-adv-x="1421" d="M1049 1864v-39l-263 -342h-159l161 381h261zM1266 1352v-805q0 -176 -73 -306.5t-197.5 -197t-282.5 -66.5q-162 0 -287 66.5t-197.5 197t-72.5 306.5v805h217v-820q0 -172 95 -264t245 -92q148 0 242 92t94 264v820h217z" />
<glyph unicode="&#xdb;" horiz-adv-x="1421" d="M711 1675l-207 -192h-166l303 381h137l303 -381h-166zM1049 1352h217v-805q0 -176 -73 -306.5t-197.5 -197t-282.5 -66.5q-162 0 -287 66.5t-197.5 197t-72.5 306.5v805h217v-820q0 -172 95 -264t245 -92q148 0 242 92t94 264v820z" />
<glyph unicode="&#xdc;" horiz-adv-x="1421" d="M459 1796q57 0 97 -38t40 -95q0 -54 -40 -93.5t-97 -39.5q-55 0 -97.5 40t-42.5 93q0 56 42.5 94.5t97.5 38.5zM958 1796q59 0 99.5 -39t40.5 -96q0 -54 -41 -93.5t-99 -39.5q-53 0 -95 40t-42 93q0 56 41.5 95.5t95.5 39.5zM1266 1352v-805q0 -176 -73 -306.5 t-197.5 -197t-282.5 -66.5q-162 0 -287 66.5t-197.5 197t-72.5 306.5v805h217v-820q0 -172 95 -264t245 -92q148 0 242 92t94 264v820h217z" />
<glyph unicode="&#xdd;" horiz-adv-x="1269" d="M969 1825l-262 -342h-160l162 381h260v-39zM1210 1352l-467 -805v-547h-217v545l-467 807h242l334 -588l336 588h239z" />
<glyph unicode="&#xde;" horiz-adv-x="1193" d="M387 1352v-226h277q206 0 332 -115t126 -304q0 -187 -127 -305.5t-331 -118.5h-277v-283h-217v1352h217zM659 934h-272v-459h272q114 0 177 63.5t63 166.5q0 104 -63 166.5t-177 62.5z" />
<glyph unicode="&#xdf;" horiz-adv-x="1290" d="M616 1559q176 0 280.5 -85t104.5 -231q0 -85 -30 -164l-80 -219q-33 -86 -33 -125q0 -11 2.5 -21t5 -18.5t10 -18t12.5 -16t16.5 -15.5t18 -14t22.5 -15t23.5 -15t27 -16.5t28.5 -16.5q108 -67 160.5 -132t52.5 -161q0 -138 -102.5 -219.5t-264.5 -81.5q-205 0 -350 134 l98 153q127 -98 259 -98q66 0 105.5 26.5t39.5 79.5q0 11 -2.5 21t-5 18.5t-9.5 18t-11.5 15.5t-16.5 15.5t-18.5 14.5t-23 15.5t-24 15t-28 16.5t-29.5 18q-110 65 -162.5 120.5t-52.5 131.5q0 68 37 156l78 209q30 85 30 141q0 75 -47 120.5t-131 45.5 q-104 0 -170.5 -71.5t-66.5 -213.5v-1077h-213v1087q0 221 125 346.5t335 125.5z" />
<glyph unicode="&#xe0;" horiz-adv-x="1097" d="M623 1163h-160l-262 396v38h260zM543 1028q187 0 299 -108t112 -312v-608h-200v113q-114 -136 -322 -136q-158 0 -254 80t-96 211q0 132 101 209.5t270 77.5h284v66q0 104 -56 159.5t-159 55.5q-84 0 -149 -37.5t-129 -112.5l-125 127q152 215 424 215zM477 143 q107 0 183.5 68.5t76.5 169.5v18h-258q-178 0 -178 -123q0 -64 49.5 -98.5t126.5 -34.5z" />
<glyph unicode="&#xe1;" horiz-adv-x="1097" d="M887 1559l-262 -396h-160l162 434h260v-38zM543 1028q187 0 299 -108t112 -312v-608h-200v113q-114 -136 -322 -136q-158 0 -254 80t-96 211q0 132 101 209.5t270 77.5h284v66q0 104 -56 159.5t-159 55.5q-84 0 -149 -37.5t-129 -112.5l-125 127q152 215 424 215z M477 143q107 0 183.5 68.5t76.5 169.5v18h-258q-178 0 -178 -123q0 -64 49.5 -98.5t126.5 -34.5z" />
<glyph unicode="&#xe2;" horiz-adv-x="1097" d="M543 1386l-185 -223h-161l276 434h139l277 -434h-162zM543 1028q187 0 299 -108t112 -312v-608h-200v113q-114 -136 -322 -136q-158 0 -254 80t-96 211q0 132 101 209.5t270 77.5h284v66q0 104 -56 159.5t-159 55.5q-84 0 -149 -37.5t-129 -112.5l-125 127 q152 215 424 215zM477 143q107 0 183.5 68.5t76.5 169.5v18h-258q-178 0 -178 -123q0 -64 49.5 -98.5t126.5 -34.5z" />
<glyph unicode="&#xe3;" horiz-adv-x="1097" d="M356 1229h-168q-4 20 -4 59q0 108 56.5 176t146.5 68q79 0 143 -49l56 -41q51 -41 84 -41q57 0 57 78v28h170q2 -20 2 -59q0 -108 -56.5 -177t-146.5 -69q-72 0 -143 49l-53 41q-2 2 -11.5 9t-11.5 8.5t-9.5 7t-10.5 6.5t-9.5 4.5t-11 4.5t-10.5 2t-12 1q-58 0 -58 -78 v-28zM543 1028q187 0 299 -108t112 -312v-608h-200v113q-114 -136 -322 -136q-158 0 -254 80t-96 211q0 132 101 209.5t270 77.5h284v66q0 104 -56 159.5t-159 55.5q-84 0 -149 -37.5t-129 -112.5l-125 127q152 215 424 215zM477 143q107 0 183.5 68.5t76.5 169.5v18h-258 q-178 0 -178 -123q0 -64 49.5 -98.5t126.5 -34.5z" />
<glyph unicode="&#xe4;" horiz-adv-x="1097" d="M311 1247q-55 0 -97 40t-42 93q0 57 42 96.5t97 39.5q58 0 98 -39t40 -97q0 -54 -40.5 -93.5t-97.5 -39.5zM770 1247q-53 0 -95 40t-42 93q0 57 41.5 96.5t95.5 39.5q59 0 99 -39t40 -97q0 -54 -40.5 -93.5t-98.5 -39.5zM543 1028q187 0 299 -108t112 -312v-608h-200v113 q-114 -136 -322 -136q-158 0 -254 80t-96 211q0 132 101 209.5t270 77.5h284v66q0 104 -56 159.5t-159 55.5q-84 0 -149 -37.5t-129 -112.5l-125 127q152 215 424 215zM477 143q107 0 183.5 68.5t76.5 169.5v18h-258q-178 0 -178 -123q0 -64 49.5 -98.5t126.5 -34.5z" />
<glyph unicode="&#xe5;" horiz-adv-x="1097" d="M541 1135q-104 0 -173 68t-69 167q0 100 69 169t173 69q105 0 174 -68.5t69 -169.5q0 -99 -69 -167t-174 -68zM543 1466q-40 0 -67 -27.5t-27 -68.5q0 -40 27 -66t67 -26t66 26t26 66q0 41 -26.5 68.5t-65.5 27.5zM543 1028q187 0 299 -108t112 -312v-608h-200v113 q-114 -136 -322 -136q-158 0 -254 80t-96 211q0 132 101 209.5t270 77.5h284v66q0 104 -56 159.5t-159 55.5q-84 0 -149 -37.5t-129 -112.5l-125 127q152 215 424 215zM477 143q107 0 183.5 68.5t76.5 169.5v18h-258q-178 0 -178 -123q0 -64 49.5 -98.5t126.5 -34.5z" />
<glyph unicode="&#xe6;" horiz-adv-x="1816" d="M1708 418h-745q25 -118 110.5 -184t212.5 -66q158 0 291 117l104 -146q-170 -162 -399 -162q-138 0 -250.5 59.5t-181.5 162.5q-56 -107 -163 -164.5t-243 -57.5q-169 0 -265.5 81.5t-96.5 213.5q0 137 101 219t270 82h284v48q0 103 -56 159t-157 56q-82 0 -148 -38 t-130 -112l-125 127q155 215 422 215q239 0 338 -178q67 84 165.5 131t215.5 47q201 0 331.5 -131.5t130.5 -331.5q0 -89 -16 -147zM958 573h551q6 126 -68 199.5t-188 73.5t-195 -74.5t-100 -198.5zM477 145q108 0 184 66.5t76 167.5v39h-258q-178 0 -178 -129 q0 -68 49.5 -106t126.5 -38z" />
<glyph unicode="&#xe7;" horiz-adv-x="1130" d="M627 176q158 0 270 152l152 -117q-107 -174 -308 -221q41 -59 41 -135q0 -105 -79 -175.5t-214 -70.5q-68 0 -145 18v148q76 -6 119 -6q66 0 104.5 31.5t38.5 93.5q0 38 -18 83q-210 14 -353 164t-143 363q0 145 71 265.5t193.5 189.5t268.5 69q139 0 248.5 -62 t175.5 -171l-152 -119q-110 153 -270 153q-137 0 -226.5 -93.5t-89.5 -231.5q0 -140 89.5 -234t226.5 -94z" />
<glyph unicode="&#xe8;" d="M688 1163h-160l-262 396v38h260zM1077 567q0 -63 -16 -135h-750q22 -124 109.5 -194t218.5 -70q158 0 293 119l102 -148q-172 -162 -401 -162q-232 0 -386.5 150.5t-154.5 374.5q0 145 68.5 266t188 190.5t263.5 69.5q201 0 333 -131.5t132 -329.5zM604 846 q-107 0 -185.5 -67t-103.5 -179h547q-1 113 -75.5 179.5t-182.5 66.5z" />
<glyph unicode="&#xe9;" d="M952 1559l-262 -396h-160l162 434h260v-38zM1077 567q0 -63 -16 -135h-750q22 -124 109.5 -194t218.5 -70q158 0 293 119l102 -148q-172 -162 -401 -162q-232 0 -386.5 150.5t-154.5 374.5q0 145 68.5 266t188 190.5t263.5 69.5q201 0 333 -131.5t132 -329.5zM604 846 q-107 0 -185.5 -67t-103.5 -179h547q-1 113 -75.5 179.5t-182.5 66.5z" />
<glyph unicode="&#xea;" d="M610 1386l-184 -223h-162l277 434h139l276 -434h-161zM1077 567q0 -63 -16 -135h-750q22 -124 109.5 -194t218.5 -70q158 0 293 119l102 -148q-172 -162 -401 -162q-232 0 -386.5 150.5t-154.5 374.5q0 145 68.5 266t188 190.5t263.5 69.5q201 0 333 -131.5t132 -329.5z M604 846q-107 0 -185.5 -67t-103.5 -179h547q-1 113 -75.5 179.5t-182.5 66.5z" />
<glyph unicode="&#xeb;" d="M379 1247q-55 0 -97 40t-42 93q0 57 42 96.5t97 39.5q57 0 97 -39t40 -97q0 -54 -40 -93.5t-97 -39.5zM838 1247q-53 0 -95.5 40t-42.5 93q0 57 42 96.5t96 39.5q59 0 99 -39t40 -97q0 -54 -40.5 -93.5t-98.5 -39.5zM1077 567q0 -63 -16 -135h-750q22 -124 109.5 -194 t218.5 -70q158 0 293 119l102 -148q-172 -162 -401 -162q-232 0 -386.5 150.5t-154.5 374.5q0 145 68.5 266t188 190.5t263.5 69.5q201 0 333 -131.5t132 -329.5zM604 846q-107 0 -185.5 -67t-103.5 -179h547q-1 113 -75.5 179.5t-182.5 66.5z" />
<glyph unicode="&#xec;" horiz-adv-x="526" d="M246 1597l100 -434h-160l-200 396v38h260zM371 1006v-1006h-215v1006h215z" />
<glyph unicode="&#xed;" horiz-adv-x="526" d="M543 1597v-38l-201 -396h-160l101 434h260zM371 1006v-1006h-215v1006h215z" />
<glyph unicode="&#xee;" horiz-adv-x="526" d="M334 1597l276 -434h-161l-185 223l-184 -223h-162l277 434h139zM156 0v1006h215v-1006h-215z" />
<glyph unicode="&#xef;" horiz-adv-x="526" d="M59 1516q58 0 98 -39t40 -97q0 -54 -40.5 -93.5t-97.5 -39.5q-56 0 -97.5 39.5t-41.5 93.5q0 58 41 97t98 39zM469 1516q59 0 99 -39t40 -97q0 -54 -40.5 -93.5t-98.5 -39.5q-54 0 -95.5 39.5t-41.5 93.5q0 57 41 96.5t96 39.5zM371 1006v-1006h-215v1006h215z" />
<glyph unicode="&#xf0;" horiz-adv-x="1169" d="M846 963q60 -80 92.5 -127.5t69.5 -114.5t53 -130.5t16 -131.5q0 -207 -139.5 -344.5t-351.5 -137.5q-215 0 -354.5 134.5t-139.5 334.5q0 199 135 330t332 131q50 0 70 -4l-164 227l-293 -143l-76 156l264 129l-122 168l163 119l146 -197l317 154l78 -154l-289 -141z M584 172q119 0 196.5 78t77.5 199q0 120 -77.5 197t-196.5 77t-196 -78t-77 -199q0 -120 76.5 -197t196.5 -77z" />
<glyph unicode="&#xf1;" horiz-adv-x="1177" d="M395 1229h-168q-4 20 -4 59q0 108 56.5 176t146.5 68q79 0 143 -49l56 -41q51 -41 84 -41q57 0 57 78v28h170q2 -20 2 -59q0 -108 -56.5 -177t-146.5 -69q-72 0 -143 49l-53 41q-2 2 -11.5 9t-11.5 8.5t-9.5 7t-10.5 6.5t-9.5 4.5t-11 4.5t-10.5 2t-12 1q-58 0 -58 -78 v-28zM657 1028q176 0 276.5 -109.5t100.5 -289.5v-629h-215v600q0 104 -60 169t-159 65q-100 0 -164.5 -65.5t-64.5 -168.5v-600h-215v1006h200v-101q113 123 301 123z" />
<glyph unicode="&#xf2;" horiz-adv-x="1247" d="M543 1597l162 -434h-160l-262 396v38h260zM623 1028q146 0 268.5 -69t194 -189.5t71.5 -265.5t-71.5 -266.5t-194.5 -191t-268 -69.5q-146 1 -267.5 70t-192.5 190t-71 267q0 145 70.5 265.5t192.5 189.5t268 69zM625 831q-136 -1 -225 -95t-89 -234t88.5 -233t223.5 -93 q133 0 223 94t90 232q0 140 -89 233.5t-222 95.5z" />
<glyph unicode="&#xf3;" horiz-adv-x="1247" d="M969 1597v-38l-262 -396h-160l162 434h260zM623 1028q146 0 268.5 -69t194 -189.5t71.5 -265.5t-71.5 -266.5t-194.5 -191t-268 -69.5q-146 1 -267.5 70t-192.5 190t-71 267q0 145 70.5 265.5t192.5 189.5t268 69zM625 831q-136 -1 -225 -95t-89 -234t88.5 -233 t223.5 -93q133 0 223 94t90 232q0 140 -89 233.5t-222 95.5z" />
<glyph unicode="&#xf4;" horiz-adv-x="1247" d="M625 1386l-185 -223h-161l276 434h139l277 -434h-162zM623 1028q146 0 268.5 -69t194 -189.5t71.5 -265.5t-71.5 -266.5t-194.5 -191t-268 -69.5q-146 1 -267.5 70t-192.5 190t-71 267q0 145 70.5 265.5t192.5 189.5t268 69zM623 176q133 0 223 94t90 232 q0 140 -89 233.5t-222 95.5q-136 -1 -225 -95t-89 -234t88.5 -233t223.5 -93z" />
<glyph unicode="&#xf5;" horiz-adv-x="1247" d="M469 1532q79 0 143 -49l56 -41q51 -41 84 -41q57 0 57 78v28h170q2 -20 2 -59q0 -108 -56.5 -177t-146.5 -69q-72 0 -143 49l-53 41q-2 2 -11.5 9t-11.5 8.5t-9.5 7t-10.5 6.5t-9.5 4.5t-11 4.5t-10.5 2t-12 1q-58 0 -58 -78v-28h-168q-4 20 -4 59q0 108 56.5 176 t146.5 68zM623 1028q146 0 268.5 -69t194 -189.5t71.5 -265.5t-71.5 -266.5t-194.5 -191t-268 -69.5q-146 1 -267.5 70t-192.5 190t-71 267q0 145 70.5 265.5t192.5 189.5t268 69zM625 831q-136 -1 -225 -95t-89 -234t88.5 -233t223.5 -93q133 0 223 94t90 232 q0 140 -89 233.5t-222 95.5z" />
<glyph unicode="&#xf6;" horiz-adv-x="1247" d="M393 1516q57 0 97 -39t40 -97q0 -54 -40 -93.5t-97 -39.5q-55 0 -97 40t-42 93q0 57 42 96.5t97 39.5zM852 1516q59 0 99 -39t40 -97q0 -54 -40.5 -93.5t-98.5 -39.5q-53 0 -95 40t-42 93q0 57 41.5 96.5t95.5 39.5zM623 1028q146 0 268.5 -69t194 -189.5t71.5 -265.5 t-71.5 -266.5t-194.5 -191t-268 -69.5q-146 1 -267.5 70t-192.5 190t-71 267q0 145 70.5 265.5t192.5 189.5t268 69zM625 831q-136 -1 -225 -95t-89 -234t88.5 -233t223.5 -93q133 0 223 94t90 232q0 140 -89 233.5t-222 95.5z" />
<glyph unicode="&#xf7;" horiz-adv-x="1146" d="M569 1155q59 0 99.5 -38t40.5 -95q0 -56 -41 -94.5t-99 -38.5q-57 0 -98 39t-41 94q0 56 40.5 94.5t98.5 38.5zM1042 743v-186h-940v186h940zM569 408q59 0 99.5 -38.5t40.5 -95.5t-40.5 -95t-99.5 -38q-58 0 -98.5 38.5t-40.5 94.5q0 57 41 95.5t98 38.5z" />
<glyph unicode="&#xf8;" horiz-adv-x="1263" d="M1182 922l-115 -115q96 -135 96 -305q0 -144 -71.5 -265t-194.5 -190.5t-268 -69.5q-164 0 -301 91l-115 -117l-131 131l113 115q-97 141 -97 305q0 146 71 267t193 190t269 69q164 0 303 -92l117 115zM631 842q-144 0 -236 -96t-92 -244q0 -96 43 -174l463 465 q-76 49 -178 49zM629 160q142 0 235.5 97t93.5 245q0 101 -40 174l-465 -465q76 -51 176 -51z" />
<glyph unicode="&#xf9;" d="M502 1597l162 -434h-160l-262 396v38h260zM1022 1006v-584q0 -200 -124 -322.5t-312 -122.5q-191 0 -316 122t-125 323v584h213v-600q0 -104 65 -167t163 -63q94 0 157.5 63t63.5 167v600h215z" />
<glyph unicode="&#xfa;" d="M928 1597v-38l-262 -396h-160l162 434h260zM1022 1006v-584q0 -200 -124 -322.5t-312 -122.5q-191 0 -316 122t-125 323v584h213v-600q0 -104 65 -167t163 -63q94 0 157.5 63t63.5 167v600h215z" />
<glyph unicode="&#xfb;" d="M584 1386l-185 -223h-161l276 434h139l277 -434h-162zM807 1006h215v-584q0 -200 -124 -322.5t-312 -122.5q-191 0 -316 122t-125 323v584h213v-600q0 -104 65 -167t163 -63q94 0 157.5 63t63.5 167v600z" />
<glyph unicode="&#xfc;" d="M352 1516q57 0 97 -39t40 -97q0 -54 -40 -93.5t-97 -39.5q-55 0 -97 40t-42 93q0 57 42 96.5t97 39.5zM811 1516q59 0 99 -39t40 -97q0 -54 -40.5 -93.5t-98.5 -39.5q-53 0 -95 40t-42 93q0 57 41.5 96.5t95.5 39.5zM1022 1006v-584q0 -200 -124 -322.5t-312 -122.5 q-191 0 -316 122t-125 323v584h213v-600q0 -104 65 -167t163 -63q94 0 157.5 63t63.5 167v600h215z" />
<glyph unicode="&#xfd;" horiz-adv-x="1124" d="M903 1559l-262 -396h-160l162 434h260v-38zM856 1006h229l-489 -1121q-63 -144 -152 -210t-217 -66q-84 0 -166 20v183q106 -9 119 -9q76 0 129 31.5t90 116.5l41 94l-401 961h231l289 -734z" />
<glyph unicode="&#xfe;" horiz-adv-x="1292" d="M707 1028q214 0 353.5 -149.5t139.5 -374.5q0 -227 -139.5 -377t-353.5 -150q-102 0 -190 37.5t-146 106.5v-490h-215v1905h215v-651q57 68 145.5 105.5t190.5 37.5zM672 174q131 0 219 92t88 236q0 145 -87.5 237t-219.5 92q-58 0 -111 -19.5t-96.5 -57.5t-69.5 -102.5 t-26 -147.5q0 -82 25.5 -147t69 -104t96.5 -59t112 -20z" />
<glyph unicode="&#xff;" horiz-adv-x="1124" d="M328 1247q-55 0 -97.5 40t-42.5 93q0 57 42.5 96.5t97.5 39.5q57 0 97 -39t40 -97q0 -54 -40 -93.5t-97 -39.5zM786 1247q-53 0 -95 40t-42 93q0 57 41.5 96.5t95.5 39.5q59 0 99.5 -39t40.5 -97q0 -54 -41 -93.5t-99 -39.5zM856 1006h229l-489 -1121q-63 -144 -152 -210 t-217 -66q-84 0 -166 20v183q106 -9 119 -9q76 0 129 31.5t90 116.5l41 94l-401 961h231l289 -734z" />
<glyph unicode="&#x152;" horiz-adv-x="2279" d="M1501 195h694v-195h-911v195q-84 -103 -211.5 -160.5t-277.5 -57.5q-196 0 -358 91.5t-255.5 252.5t-93.5 355t93.5 354.5t256 252t359.5 91.5q151 0 277.5 -57.5t209.5 -159.5v195h887v-195h-670v-348h504v-184h-504v-430zM797 176q210 0 348.5 142t138.5 358 q0 215 -139 357.5t-348 142.5t-346.5 -141.5t-137.5 -358.5t137.5 -358.5t346.5 -141.5z" />
<glyph unicode="&#x153;" horiz-adv-x="1970" d="M1880 565q0 -63 -16 -135h-740q22 -124 107 -194t213 -70q155 0 287 119l106 -146q-172 -164 -399 -164q-132 0 -241.5 58.5t-176.5 159.5q-66 -101 -170.5 -158.5t-233.5 -57.5q-144 0 -264 68.5t-190 189.5t-70 267t70.5 267t191 190t264.5 69q130 0 234 -57.5 t168 -159.5q67 100 171.5 157.5t229.5 57.5q195 0 327 -132t132 -329zM1409 844q-104 0 -180 -66.5t-101 -179.5h537q-1 114 -75.5 180t-180.5 66zM618 176q133 0 216.5 93t83.5 233q0 141 -82.5 234t-214.5 93q-134 0 -222 -93.5t-88 -233.5t87 -233t220 -93z" />
<glyph unicode="&#x178;" horiz-adv-x="1269" d="M379 1530q-55 0 -97 40t-42 93q0 56 42 94.5t97 38.5q57 0 97 -38t40 -95q0 -54 -40 -93.5t-97 -39.5zM879 1528q-53 0 -95.5 40t-42.5 93q0 56 42 95.5t96 39.5q59 0 99 -39t40 -96q0 -54 -40.5 -93.5t-98.5 -39.5zM1210 1352l-467 -805v-547h-217v545l-467 807h242 l334 -588l336 588h239z" />
<glyph unicode="&#x2c6;" horiz-adv-x="815" d="M754 1163h-162l-184 223l-185 -223h-162l277 434h139z" />
<glyph unicode="&#x2dc;" horiz-adv-x="837" d="M264 1532q80 0 144 -49l55 -41q51 -41 84 -41q57 0 57 78v28h170q2 -20 2 -59q0 -108 -56.5 -177t-146.5 -69q-72 0 -143 49l-53 41q-2 2 -11.5 9t-11.5 8.5t-9.5 7t-10.5 6.5t-9.5 4.5t-11 4.5t-10.5 2t-12 1q-58 0 -58 -78v-28h-167q-5 25 -5 59q0 108 56.5 176 t146.5 68z" />
<glyph unicode="&#x2000;" horiz-adv-x="939" />
<glyph unicode="&#x2001;" horiz-adv-x="1878" />
<glyph unicode="&#x2002;" horiz-adv-x="939" />
<glyph unicode="&#x2003;" horiz-adv-x="1878" />
<glyph unicode="&#x2004;" horiz-adv-x="626" />
<glyph unicode="&#x2005;" horiz-adv-x="469" />
<glyph unicode="&#x2006;" horiz-adv-x="313" />
<glyph unicode="&#x2007;" horiz-adv-x="313" />
<glyph unicode="&#x2008;" horiz-adv-x="234" />
<glyph unicode="&#x2009;" horiz-adv-x="375" />
<glyph unicode="&#x200a;" horiz-adv-x="104" />
<glyph unicode="&#x2010;" horiz-adv-x="704" d="M604 741v-182h-504v182h504z" />
<glyph unicode="&#x2011;" horiz-adv-x="704" d="M604 741v-182h-504v182h504z" />
<glyph unicode="&#x2012;" horiz-adv-x="704" d="M604 741v-182h-504v182h504z" />
<glyph unicode="&#x2013;" horiz-adv-x="1032" d="M952 741v-182h-872v182h872z" />
<glyph unicode="&#x2014;" horiz-adv-x="2048" d="M1946 741v-182h-1844v182h1844z" />
<glyph unicode="&#x2018;" horiz-adv-x="595" d="M414 1352l-21 -549h-248l101 549h168z" />
<glyph unicode="&#x2019;" horiz-adv-x="595" d="M449 1352l-101 -549h-166l19 549h248z" />
<glyph unicode="&#x201a;" horiz-adv-x="595" d="M449 217l-101 -547h-166l19 547h248z" />
<glyph unicode="&#x201c;" horiz-adv-x="1024" d="M414 1352l-21 -549h-248l101 549h168zM842 1352l-19 -549h-248l101 549h166z" />
<glyph unicode="&#x201d;" horiz-adv-x="1024" d="M449 1352l-101 -549h-166l19 549h248zM879 1352l-101 -549h-166l19 549h248z" />
<glyph unicode="&#x201e;" horiz-adv-x="1024" d="M449 217l-101 -547h-166l19 547h248zM879 217l-101 -547h-166l19 547h248z" />
<glyph unicode="&#x2022;" horiz-adv-x="823" d="M412 846q125 0 212 -84t87 -211q0 -126 -87 -209.5t-212 -83.5q-124 0 -212.5 84t-88.5 209q0 127 88.5 211t212.5 84z" />
<glyph unicode="&#x2026;" horiz-adv-x="1593" d="M799 295q66 0 111.5 -45.5t45.5 -114.5q0 -68 -45 -113t-112 -45q-68 0 -114 45t-46 113q0 69 46 114.5t114 45.5zM1319 295q67 0 112.5 -45.5t45.5 -114.5q0 -68 -45.5 -113t-112.5 -45q-68 0 -114 45t-46 113q0 69 46 114.5t114 45.5zM279 295q66 0 111.5 -45.5 t45.5 -114.5q0 -68 -45 -113t-112 -45q-68 0 -115 45t-47 113t47 114t115 46z" />
<glyph unicode="&#x202f;" horiz-adv-x="375" />
<glyph unicode="&#x2039;" horiz-adv-x="661" d="M451 993l139 -123l-283 -313l283 -317l-139 -121l-381 407v60z" />
<glyph unicode="&#x203a;" horiz-adv-x="661" d="M211 993l381 -407v-60l-381 -407l-139 121l282 317l-282 313z" />
<glyph unicode="&#x205f;" horiz-adv-x="469" />
<glyph unicode="&#x20ac;" horiz-adv-x="1390" d="M829 176q102 0 183.5 43t134.5 117l153 -121q-72 -111 -197 -174.5t-282 -63.5q-220 0 -379.5 123t-222.5 328h-211v170h178q-4 50 -4 78q0 23 4 69h-176v170h207q61 209 221 334t383 125q157 0 282 -63t197 -174l-153 -119q-54 73 -135 115.5t-183 42.5q-134 0 -232 -70 t-146 -191h540l-43 -170h-538q-2 -23 -2 -69q0 -53 4 -78h493l-45 -170h-407q51 -118 147.5 -185t228.5 -67z" />
<glyph unicode="&#x2122;" horiz-adv-x="1988" d="M1843 1366v-934h-182v508l-236 -307h-61l-234 307v-508h-184v934h62l389 -502l387 502h59zM803 1352v-166h-299v-754h-180v754h-299v166h778z" />
<glyph unicode="&#x25fc;" horiz-adv-x="1003" d="M0 1004h1004v-1004h-1004v1004z" />
</font>
</defs>
</svg>
