<svg width="156.3" height="19.4" viewBox="0 0 113 13" version="1.1" xmlns="http://www.w3.org/2000/svg" xmlns:xlink="http://www.w3.org/1999/xlink" xml:space="preserve" style="fill-rule:evenodd;clip-rule:evenodd;stroke-linejoin:round;stroke-miterlimit:1.41421;">
	<path class="brandmark" d="M14.374,0.864c-0.538,-0.829 -1.557,-0.827 -2.024,-0.826c-1.035,0.003 -1.661,-0.004 -2.278,-0.003c-2.482,0.002 -3.995,2.821 -5.074,4.289c-1.845,2.51 -2.808,3.704 -4.365,6.079c-0.713,1.087 -1.06,2.424 0.26,2.423l2.613,-0.002c0,0 1.77,0.021 2.709,-2.124c0.829,-1.892 2.27,-4.419 3.848,-6.439c0,0 2.372,-3.254 4.311,-3.397Zm2.029,5.282c-1.734,3.839 -3.453,5.393 -5.128,5.638c0.206,0.122 0.423,0.191 0.423,0.191c2.904,1.149 6.057,-3.657 6.057,-3.657c1.449,-0.001 2.243,-1.101 2.242,-1.993c0,-0.892 -0.724,-1.615 -1.617,-1.615c-0.669,0.001 -1.568,0.319 -1.977,1.436Zm-2.029,-5.282c-0.037,0.006 -2.058,0.321 -4.256,4.14l0.008,4.78c0,0 0.031,1.298 1.083,1.96c0.025,-0.003 1.025,-0.14 1.622,-0.737c0.758,-0.757 1.789,-1.911 1.988,-2.855l-0.004,-5.532c0,-0.818 -0.182,-1.373 -0.437,-1.75c-0.015,0 -0.03,0.001 -0.046,0.003c0.015,-0.002 0.03,-0.003 0.044,-0.005l-0.002,-0.004Z" style="fill:#fff;"></path>
	<g>
		<path d="M27.454,11.102l1.53,-0.001l0.509,-2.027l3.626,-0.002l0.512,2.026l1.544,-0.001l-2.351,-9.443l-3.047,0.002l-2.323,9.446Zm3.51,-8.164l0.689,-0.001l1.162,4.784l-3.02,0.002l1.169,-4.785Z" style="fill:#fff;fill-rule:nonzero;"></path>
		<path d="M46.549,9.669c-0.593,0.097 -1.696,0.208 -2.399,0.208c-1.862,0.001 -2.207,-0.908 -2.209,-3.5c-0.002,-2.675 0.425,-3.517 2.162,-3.518c0.676,0 1.82,0.109 2.441,0.219l0.054,-1.241c-0.593,-0.137 -1.723,-0.343 -2.702,-0.343c-2.827,0.002 -3.543,1.478 -3.54,4.884c0.002,3.226 0.665,4.866 3.547,4.864c0.882,0 2.04,-0.167 2.688,-0.305l-0.042,-1.268Z" style="fill:#fff;fill-rule:nonzero;"></path>
		<path d="M51.659,3.005l2.689,-0.001l0.006,8.079l1.544,-0.001l-0.006,-8.08l2.661,-0.001l-0.001,-1.365l-6.894,0.004l0.001,1.365Z" style="fill:#fff;fill-rule:nonzero;"></path>
		<path d="M64.17,11.076l1.531,-0.001l-0.007,-9.445l-1.53,0.002l0.006,9.444Z" style="fill:#fff;fill-rule:nonzero;"></path>
		<path d="M77.441,1.622l-1.869,8.095l-0.69,0l-1.881,-8.092l-1.599,0.001l2.323,9.443l3.006,-0.002l2.309,-9.446l-1.599,0.001Z" style="fill:#fff;fill-rule:nonzero;"></path>
		<path d="M84.755,11.061l5.957,-0.004l-0.001,-1.351l-4.426,0.003l-0.002,-2.758l3.598,-0.002l-0.001,-1.324l-3.598,0.003l-0.002,-2.675l4.426,-0.003l-0.001,-1.338l-5.956,0.005l0.006,9.444Z" style="fill:#fff;fill-rule:nonzero;"></path>
		<path d="M102.018,11.049l-0.001,-1.365l-3.764,0.003l-0.006,-8.08l-1.531,0.001l0.007,9.445l5.295,-0.004Z" style="fill:#fff;fill-rule:nonzero;"></path>
		<path d="M109.888,7.155l2.932,-5.558l-1.709,0.001l-2.01,4.055l-2.003,-4.052l-1.723,0.001l2.968,5.554l0.003,3.888l1.544,-0.001l-0.002,-3.888Z" style="fill:#fff;fill-rule:nonzero;"></path>
	</g>
</svg>